<svg baseProfile="full" xmlns="http://www.w3.org/2000/svg" viewBox="0 0 1400 800"><g fill="#DDD" fill-rule="nonzero"><path d="M83.468 366.91a1.29 1.29 0 0 0-.091.453l-.1-.003.19-.45Z"/><path d="M287.764 400.275c-.013-.176-.028-.35-.042-.525a105.824 105.824 0 0 0-8.71-34.01 106.91 106.91 0 0 0-18.941-28.968 106.177 106.177 0 0 0-27.437-21.525c-10.625-5.809-22.13-9.739-34.195-11.68-12.066-1.942-24.222-1.822-36.134.36a106.165 106.165 0 0 0-32.806 11.828 106.873 106.873 0 0 0-27.073 21.56 106.329 106.329 0 0 0-7.404 9.14 105.499 105.499 0 0 0-11.516 20.365l-.014.033-.024.056a1.29 1.29 0 0 0-.091.454l-.1-.003c-42.823-1.074-71.427 3.631-73.075 13.859-1.646 10.235 24.074 23.692 65.127 36.121a1.341 1.341 0 0 0-.05.498 105.747 105.747 0 0 0 8.71 34.01 106.853 106.853 0 0 0 18.94 28.967 106.149 106.149 0 0 0 27.437 21.525c10.625 5.808 22.13 9.738 34.195 11.68a107.362 107.362 0 0 0 17.07 1.372c6.39 0 12.76-.577 19.062-1.732a106.17 106.17 0 0 0 32.808-11.827 106.89 106.89 0 0 0 28.908-23.642c.016-.018.033-.036.048-.055a.635.635 0 0 0 .04-.048l.016-.02a105.706 105.706 0 0 0 17.003-27.354c.068-.16.103-.325.106-.488 5.512.14 10.79.183 15.805.131a15.297 15.297 0 0 1-.747-4.736c0-.766.056-1.517.166-2.252-3.941.27-8.182.448-12.695.53a107.35 107.35 0 0 0 4.575-18.165 107.643 107.643 0 0 0 1.36-18.685c25.53 8.957 40.73 18.083 39.571 25.273-.319 1.98-1.862 3.711-4.497 5.19a15.292 15.292 0 0 1 2.315 8.109c0 .998-.096 1.975-.28 2.922 16.615-2.165 26.646-6.24 27.601-12.174 1.646-10.228-24.035-23.672-65.032-36.094Zm-212.85 10.263c-25.53-8.955-40.73-18.083-39.574-25.272 1.159-7.19 18.456-11.086 45.508-11.578a107.52 107.52 0 0 0-4.574 18.166 107.656 107.656 0 0 0-1.36 18.684Zm185.995 65.386c-17.118-.193-50.207-1.234-83.39-5.977a1.333 1.333 0 0 0-.378 2.64c31.919 4.561 63.733 5.716 81.464 5.974-23.083 25.557-58.025 38.556-93.62 32.826-28.087-4.52-52.13-19.987-67.85-41.792a670.449 670.449 0 0 0 18.55 5.243 1.333 1.333 0 0 0 .688-2.576 675.042 675.042 0 0 1-21.662-6.178 103.69 103.69 0 0 1-4.737-7.924 689.08 689.08 0 0 0 12.815 3.864 1.333 1.333 0 1 0 .745-2.56 677.887 677.887 0 0 1-15.28-4.642 99.929 99.929 0 0 1-1.808-3.865c10.66 3.414 26.184 8.077 43.756 12.391a1.333 1.333 0 1 0 .636-2.589c-18.738-4.6-35.142-9.602-45.763-13.045a103.917 103.917 0 0 1-7.094-29.578c27.45 8.15 61.431 15.817 98.507 21.784 37.076 5.97 71.745 9.353 100.367 10.23a103.826 103.826 0 0 1-15.946 25.774Zm23.184-50.614a104.68 104.68 0 0 1-4.62 18.167 1.346 1.346 0 0 0-.075.459c-26.958.257-62.954-2.715-102.103-9.016-39.15-6.303-74.26-14.777-99.777-23.481.05-.144.075-.299.072-.46-.124-6.218.319-12.51 1.316-18.7a104.996 104.996 0 0 1 4.756-18.552c10.417 3.642 41.374 13.992 76.625 21.328a1.333 1.333 0 1 0 .544-2.61c-35.04-7.292-65.821-17.577-76.238-21.218a99.432 99.432 0 0 1 1.332-3.28l.012-.027c.529-1.24 1.08-2.465 1.651-3.674 8.883 3.051 25.858 8.6 46.704 14.037a1.333 1.333 0 0 0 .673-2.58c-20.522-5.352-37.272-10.812-46.197-13.871a103.691 103.691 0 0 1 7.804-13.014 671.325 671.325 0 0 0 43.936 12.838 1.333 1.333 0 0 0 .659-2.585 667.726 667.726 0 0 1-42.954-12.52 103.313 103.313 0 0 1 15.988-17.038 666.544 666.544 0 0 0 12.93 3.816 1.334 1.334 0 0 0 .728-2.565 666.468 666.468 0 0 1-11.185-3.285c1.578-1.26 3.192-2.47 4.839-3.631 11.208 3.313 22.322 6.285 33.042 8.84a1.335 1.335 0 0 0 .619-2.593 640.286 640.286 0 0 1-30.811-8.19c21.128-13.884 47.21-19.963 73.652-15.706 26.287 4.231 49.033 18.051 64.728 37.684a706.781 706.781 0 0 1-28.893-1.641 1.333 1.333 0 0 0-.208 2.658c10.129.788 20.63 1.37 31.22 1.726a101.98 101.98 0 0 1 3.494 4.98c-15.63-.431-30.919-1.339-45.479-2.697a1.333 1.333 0 1 0-.248 2.654c15.176 1.417 31.139 2.343 47.452 2.755a103.311 103.311 0 0 1 9.94 21.242 736.34 736.34 0 0 1-35.946-1.112 1.329 1.329 0 0 0-1.404 1.257 1.332 1.332 0 0 0 1.257 1.405c15.33.85 28.407 1.083 36.95 1.12a103.768 103.768 0 0 1 3.374 14.835c-4.753.03-13.137.013-23.822-.3a1.34 1.34 0 0 0-1.371 1.294 1.334 1.334 0 0 0 1.293 1.372c8.465.248 15.492.31 20.425.31 1.474 0 2.76-.005 3.842-.013a103.299 103.299 0 0 1 .791 10.88c.124 6.22-.32 12.512-1.317 18.702Z"/><path d="M192.924 346.637a1.334 1.334 0 0 1-1.521 1.115c-.847-.131-1.693-.264-2.538-.4l-.608-.098a434.84 434.84 0 0 1-11.372-2.005 1.334 1.334 0 0 1 .498-2.62 435.16 435.16 0 0 0 11.302 1.994l.6.096a330.4 330.4 0 0 0 2.524.397 1.334 1.334 0 0 1 1.115 1.521ZM179.048 386.673a1.333 1.333 0 0 1-1.541 1.087 473.888 473.888 0 0 1-19.02-3.702 1.333 1.333 0 1 1 .562-2.606 470.893 470.893 0 0 0 18.912 3.68 1.332 1.332 0 0 1 1.087 1.54ZM230.239 402.974a1.332 1.332 0 0 1-1.328 1.238c-.032 0-.064 0-.096-.003-12.078-.854-23.712-2.005-34.58-3.419a1.333 1.333 0 1 1 .345-2.644c10.815 1.408 22.397 2.553 34.423 3.404.734.052 1.288.69 1.236 1.424ZM189.335 478.735a1.333 1.333 0 0 1-1.48 1.166 485.48 485.48 0 0 1-19.223-2.67l-.606-.099a458.657 458.657 0 0 1-3.426-.57 1.333 1.333 0 0 1 .449-2.628c1.134.193 2.28.384 3.403.567l.602.097c6.09.976 12.521 1.869 19.116 2.656.73.086 1.252.75 1.165 1.48ZM212.644 373.307a1.333 1.333 0 0 1-1.466 1.185c-4.23-.45-8.426-.946-12.472-1.473a1.332 1.332 0 1 1 .344-2.644c4.025.524 8.2 1.018 12.41 1.466a1.332 1.332 0 0 1 1.184 1.466ZM323.808 553.965c-5.815.121-5.913.219-6.035 6.035-.12-5.815-.218-5.914-6.034-6.035 5.815-.121 5.913-.219 6.034-6.035.058 2.726.108 4.195.747 5l.007.009c.725.903 2.2.96 5.281 1.025v.001ZM134.26 260.82c-7.5.156-7.627.283-7.783 7.783-.156-7.5-.282-7.627-7.782-7.782 7.5-.156 7.626-.283 7.782-7.783.156 7.5.283 7.627 7.783 7.783ZM399.279 238.158c-7.5.156-7.627.283-7.783 7.783-.156-7.5-.282-7.627-7.782-7.783 7.5-.156 7.626-.283 7.782-7.783.156 7.5.283 7.627 7.783 7.783ZM286.1 179.369c-7.5.155-7.627.282-7.783 7.782-.156-7.5-.283-7.627-7.783-7.782 7.5-.156 7.627-.283 7.783-7.783.156 7.5.282 7.627 7.782 7.783ZM317.827 328.008c-7.5.156-7.627.283-7.783 7.783-.156-7.5-.282-7.627-7.782-7.783 7.5-.156 7.626-.282 7.782-7.782.156 7.5.283 7.626 7.783 7.782ZM34.4 164.438c-4.277.09-4.35.161-4.439 4.438-.089-4.277-.161-4.349-4.438-4.438 4.277-.09 4.349-.161 4.438-4.438.09 4.277.162 4.349 4.438 4.438ZM57.607 501.71c-7.5.156-7.627.283-7.783 7.783-.156-7.5-.282-7.627-7.782-7.783 7.5-.155 7.626-.282 7.782-7.782.156 7.5.283 7.627 7.783 7.782Z"/><path d="M390.023 371.086c-8.777-78.62-65.847-147.433-141.645-170.288-2.088-.68-4.78-1.412-6.895-2.026-1.678-.422-4.124-1.08-5.8-1.493-.737-.168-5.023-1.14-5.843-1.324-.405-.07-4.991-1.003-5.29-1.045a69.936 69.936 0 0 0-1.771-.307c-1.362-.22-3.382-.59-4.73-.782-2.192-.298-4.94-.72-7.13-.939-49.025-5.764-99.084 7.044-139.593 35.152l-.944-1.318-1.258.9.16.225-15.27 8.663a5.99 5.99 0 0 0-1.066.605c-2.625 1.878-5.66 11.232-5.66 11.232s9.834.151 12.459-1.727c.34-.243.646-.517.917-.813l13.13-11.653.162.225 1.26-.9-1.028-1.437c15.524-10.914 32.59-19.647 50.548-25.807 1.656-.584 3.925-1.276 5.582-1.829 2.98-.93 7.161-2.073 10.18-2.862 21.638-5.478 44.26-7.272 66.495-5.3 1.795.194 4.068.394 5.853.613 1.695.248 4.15.497 5.832.784 1.297.208 3.351.535 4.65.742 2.867.499 7.538 1.437 10.386 2.089 1.308.275 3.263.775 4.58 1.105 66.41 16.232 121.148 67.743 141.955 132.818 23.812 71.587 3.33 153.916-50.824 206.258.005.007.01.015.017.022 45.155-43.024 68.196-107.665 60.581-169.583ZM56.58 243.046a1.1 1.1 0 1 1-1.278-1.788 1.1 1.1 0 0 1 1.278 1.788Zm2.276-1.627a1.099 1.099 0 1 1-1.278-1.788 1.099 1.099 0 0 1 1.278 1.788Zm3.946-1.35a2.298 2.298 0 1 1-2.672-3.739 2.298 2.298 0 0 1 2.672 3.74ZM20.263 184.298c-1.344 4.176-5.26 7.196-9.882 7.196-5.734 0-10.381-4.647-10.381-10.38 0-2.87 1.164-5.466 3.045-7.346a10.393 10.393 0 0 0-.497 3.185c0 5.734 4.647 10.38 10.379 10.38a10.35 10.35 0 0 0 7.336-3.035Z"/><path d="M322.142 445.62c0 1.159-.164 2.282-.472 3.343-1.452 5.03-6.099 8.722-11.592 8.722-4.993 0-9.287-3.049-11.118-7.381a11.994 11.994 0 0 1-.947-4.683c0-.863.09-1.705.265-2.517 1.16-5.449 6.01-9.548 11.8-9.548 4.177 0 7.866 2.136 10.031 5.371a11.987 11.987 0 0 1 2.033 6.694Z"/></g><g fill="#DDD" fill-rule="nonzero"><path d="M789.584 307.309a.188.188 0 0 0-.027.12l-.052.008.079-.128Z"/><path d="m841.279 306.664-.033-.128a26.456 26.456 0 0 0-3.621-7.995 26.727 26.727 0 0 0-13.61-10.418 26.57 26.57 0 0 0-8.926-1.391 26.541 26.541 0 0 0-16.444 5.993 26.718 26.718 0 0 0-7.156 9.056 26.375 26.375 0 0 0-1.951 5.513l-.002.01-.004.014a.322.322 0 0 0-.002.116l-.025.003c-10.59 1.595-17.428 3.995-17.39 6.585.04 2.591 6.956 4.787 17.603 6.066a.335.335 0 0 0 .009.124 26.437 26.437 0 0 0 4.372 9.057 26.713 26.713 0 0 0 12.859 9.356 26.577 26.577 0 0 0 8.926 1.392 26.84 26.84 0 0 0 4.262-.404 26.543 26.543 0 0 0 12.182-5.59 26.723 26.723 0 0 0 6.09-7.076c.004-.004.007-.01.01-.015a.159.159 0 0 0 .008-.014l.003-.005a26.427 26.427 0 0 0 2.999-7.473.325.325 0 0 0 .005-.125c1.363-.204 2.664-.423 3.897-.654a3.824 3.824 0 0 1-.447-1.695 63.1 63.1 0 0 1-3.102.682 26.91 26.91 0 0 0-.139-9.33c6.674 1.096 10.813 2.684 10.84 4.504.007.501-.298.994-.882 1.473a3.823 3.823 0 0 1 .98 2.627c3.997-1.254 6.29-2.693 6.267-4.195-.04-2.59-6.945-4.785-17.578-6.063ZM789.32 318.43c-6.674-1.097-10.813-2.684-10.84-4.504-.027-1.82 4.063-3.53 10.702-4.826a26.88 26.88 0 0 0 .138 9.33Zm48.631 8.024c-4.223.695-12.414 1.875-20.79 2.148a.333.333 0 0 0 .022.666c8.056-.262 15.939-1.36 20.316-2.065a25.94 25.94 0 0 1-21.625 12.146 25.949 25.949 0 0 1-18.52-7.344c1.607.186 3.216.349 4.796.486a.334.334 0 1 0 .057-.664 168.76 168.76 0 0 1-5.601-.581 25.923 25.923 0 0 1-1.51-1.745c1.095.14 2.209.273 3.322.395a.333.333 0 1 0 .072-.663 169.472 169.472 0 0 1-3.963-.48c-.21-.286-.415-.577-.613-.873 2.773.378 6.798.852 11.31 1.152a.333.333 0 1 0 .044-.665c-4.812-.32-9.068-.839-11.832-1.226a25.98 25.98 0 0 1-3.03-6.974c7.112.815 15.81 1.228 25.198 1.087 9.387-.14 18.07-.812 25.154-1.839a25.957 25.957 0 0 1-2.807 7.039Zm3.51-13.468a26.17 26.17 0 0 1-.348 4.673.336.336 0 0 0 .001.116c-6.625 1.234-15.617 2.065-25.529 2.213-9.912.148-18.924-.414-25.584-1.45a.337.337 0 0 0-.003-.116 26.196 26.196 0 0 1-.122-9.435c2.723.444 10.794 1.649 19.791 1.925a.333.333 0 1 0 .02-.666c-8.943-.275-16.968-1.47-19.69-1.915a24.858 24.858 0 0 1 .185-.865l.002-.007c.076-.329.159-.654.247-.977 2.32.366 6.74.995 12.108 1.429a.333.333 0 0 0 .054-.664 164.57 164.57 0 0 1-11.976-1.41 25.923 25.923 0 0 1 1.356-3.543c2.645.384 6.696.902 11.375 1.253a.333.333 0 0 0 .05-.665c-4.538-.34-8.483-.838-11.12-1.217a25.828 25.828 0 0 1 3.197-4.89c1.12.139 2.246.266 3.35.379a.332.332 0 0 0 .365-.298.333.333 0 0 0-.298-.365 166.62 166.62 0 0 1-2.896-.323c.334-.379.679-.747 1.034-1.104 2.903.329 5.768.578 8.518.742a.334.334 0 1 0 .04-.665 160.071 160.071 0 0 1-7.941-.68 25.951 25.951 0 0 1 17.451-7.064 25.95 25.95 0 0 1 17.573 6.468c-2.43.337-4.843.623-7.185.85a.333.333 0 0 0 .064.664c2.528-.246 5.138-.559 7.761-.93.37.347.728.705 1.077 1.074-3.867.572-7.67 1.012-11.314 1.31a.333.333 0 1 0 .054.664c3.798-.31 7.768-.774 11.802-1.381a25.828 25.828 0 0 1 3.37 4.798c-2.099.357-5.228.847-8.899 1.287a.333.333 0 1 0 .08.662c3.811-.457 7.04-.967 9.145-1.329a25.942 25.942 0 0 1 1.475 3.506 169.55 169.55 0 0 1-5.878.96.333.333 0 0 0 .096.66 176.034 176.034 0 0 0 5.988-.98 25.825 25.825 0 0 1 .667 2.644c.3 1.526.465 3.095.488 4.662Z"/><path d="M815.6 297.575a.333.333 0 0 1-.326.34c-.214.005-.428.01-.642.012l-.154.003c-.935.012-1.906.013-2.886 0a.334.334 0 0 1 .008-.667c.975.013 1.94.013 2.87 0l.152-.002a82.6 82.6 0 0 0 .638-.012.334.334 0 0 1 .34.326ZM813.922 308.034a.333.333 0 0 1-.332.335c-1.551.006-3.18-.023-4.843-.086a.333.333 0 1 1 .025-.666c1.653.062 3.274.091 4.816.085.184 0 .334.148.334.332ZM827.233 309.825a.333.333 0 0 1-.297.367c-3.01.313-5.925.535-8.662.659a.333.333 0 1 1-.03-.666c2.724-.123 5.625-.344 8.623-.656a.333.333 0 0 1 .366.296ZM820.452 330.254a.333.333 0 0 1-.314.351 121.37 121.37 0 0 1-4.849.177l-.153.002c-.287.004-.579.007-.869.008a.333.333 0 0 1-.003-.666c.288-.002.578-.004.862-.008l.153-.002c1.541-.024 3.164-.084 4.821-.176.184-.01.341.13.352.314ZM821.614 303.285a.333.333 0 0 1-.31.356c-1.061.072-2.116.132-3.135.178a.333.333 0 1 1-.03-.665c1.014-.046 2.064-.106 3.12-.178a.333.333 0 0 1 .355.31ZM856.825 342.938c-1.426.282-1.446.31-1.224 1.748-.282-1.427-.31-1.447-1.748-1.224 1.427-.283 1.447-.31 1.224-1.748.133.669.209 1.028.401 1.199l.002.001c.218.191.584.141 1.345.023ZM797.432 278.994c-1.84.364-1.866.4-1.578 2.254-.364-1.84-.401-1.866-2.254-1.579 1.84-.364 1.865-.4 1.578-2.254.364 1.84.4 1.866 2.254 1.579ZM861.696 261.91c-1.84.363-1.865.4-1.578 2.253-.364-1.84-.4-1.865-2.254-1.578 1.84-.364 1.865-.4 1.578-2.254.364 1.84.4 1.865 2.254 1.578ZM831.279 252.348c-1.84.364-1.865.401-1.578 2.254-.364-1.84-.4-1.865-2.254-1.578 1.84-.364 1.865-.4 1.578-2.254.364 1.84.4 1.866 2.254 1.578ZM845.543 287.566c-1.84.364-1.865.401-1.578 2.254-.364-1.84-.4-1.865-2.254-1.578 1.84-.364 1.865-.4 1.578-2.254.364 1.84.4 1.866 2.254 1.578ZM768.662 259.6c-1.05.207-1.064.228-.9 1.285-.208-1.05-.229-1.064-1.285-.9 1.049-.208 1.063-.229.9-1.286.207 1.05.228 1.064 1.285.9ZM789.017 341.629c-1.84.364-1.865.4-1.578 2.254-.364-1.84-.4-1.866-2.254-1.578 1.84-.364 1.866-.401 1.578-2.254.364 1.84.401 1.865 2.254 1.578ZM851.711 316.335a3.021 3.021 0 0 1-2.447 3.494 3.02 3.02 0 0 1-3.537-3.077 3.015 3.015 0 0 1 5.985-.416Z"/></g><g fill="#DDD" fill-rule="nonzero"><path d="M1187.874 448.725c.01.076.034.15.072.22l-.046.025c-.01-.081-.018-.163-.026-.245Z"/><path d="m1284.674 412.101-.15-.217a52.912 52.912 0 0 0-12.274-12.549 53.455 53.455 0 0 0-15.443-7.808 53.089 53.089 0 0 0-17.262-2.462 53.142 53.142 0 0 0-17.727 3.492 53.15 53.15 0 0 0-15.556 9.188 53.083 53.083 0 0 0-11.248 13.324 53.437 53.437 0 0 0-7.255 21.913 52.75 52.75 0 0 0 .105 11.697l.002.018.004.03c.011.076.035.15.074.22l-.044.023c-18.811 10.24-30.021 19.43-28.178 24.27 1.846 4.844 16.348 4.24 37.232-.64a.67.67 0 0 0 .102.227 52.873 52.873 0 0 0 11.167 11.719l.012.01a52.243 52.243 0 0 0 3.233 2.303 53.426 53.426 0 0 0 13.305 6.326 53.074 53.074 0 0 0 17.262 2.461 53.153 53.153 0 0 0 17.727-3.491 53.681 53.681 0 0 0 7.735-3.674 53.085 53.085 0 0 0 19.07-18.839 53.445 53.445 0 0 0 6.607-17.464l.007-.035a.318.318 0 0 0 .005-.031l.002-.013a52.853 52.853 0 0 0 .525-16.095.65.65 0 0 0-.077-.238 221.545 221.545 0 0 0 6.877-3.894 7.649 7.649 0 0 1-1.999-2.881 126.2 126.2 0 0 1-5.365 3.403 53.822 53.822 0 0 0-6.642-17.44c13.294-2.504 22.157-2.352 23.453 1.05.357.938.121 2.073-.65 3.372a7.646 7.646 0 0 1 3.03 2.933c.25.432.452.88.61 1.335 6.653-5.091 9.977-9.364 8.908-12.172-1.845-4.84-16.326-4.241-37.184.63Zm-89.6 57.656c-13.295 2.506-22.158 2.353-23.455-1.049-1.296-3.403 5.22-9.414 16.811-16.39a53.828 53.828 0 0 0 6.643 17.44Zm96.884-18.185c-7.46 4.196-22.049 12.017-37.603 18.26a.666.666 0 0 0 .496 1.237c14.962-6.005 29.026-13.458 36.769-17.78-3.607 16.838-15.487 31.202-32.333 37.62-13.292 5.064-27.569 4.378-39.828-1.134 3.146-.75 6.28-1.544 9.343-2.367a.668.668 0 1 0-.346-1.287c-3.575.96-7.25 1.882-10.924 2.74a51.845 51.845 0 0 1-4.032-2.248c2.154-.484 4.339-.996 6.515-1.53a.667.667 0 1 0-.317-1.295 338.943 338.943 0 0 1-7.778 1.81 49.964 49.964 0 0 1-1.749-1.221 334.582 334.582 0 0 0 22.045-5.574.667.667 0 0 0-.372-1.28 333.765 333.765 0 0 1-23.077 5.792 51.958 51.958 0 0 1-10.466-11.034c13.924-3.333 30.555-8.509 48.1-15.194 17.547-6.684 33.405-13.886 46.018-20.663a51.913 51.913 0 0 1-.461 15.148Zm-2.615-27.713a52.34 52.34 0 0 1 2.542 9.022c.015.079.043.152.082.217-11.61 6.851-27.939 14.564-46.466 21.622-18.528 7.058-35.85 12.166-49.075 14.777a.673.673 0 0 0-.084-.217 52.498 52.498 0 0 1-6.684-17.649c5.422-1.027 21.414-4.285 38.512-9.921a.666.666 0 1 0-.417-1.266c-16.996 5.602-32.896 8.844-38.316 9.872-.092-.58-.173-1.16-.243-1.74v-.014c-.002-.005-.002-.01-.002-.014-.081-.67-.15-1.337-.204-2.004 4.61-.9 13.347-2.74 23.733-5.597a.667.667 0 0 0-.353-1.285 329.14 329.14 0 0 1-23.472 5.542c-.145-2.556-.1-5.09.125-7.586a335.662 335.662 0 0 0 22.235-5.426.667.667 0 0 0-.361-1.284 333.863 333.863 0 0 1-21.73 5.318 51.657 51.657 0 0 1 2.664-11.375c2.2-.507 4.402-1.038 6.552-1.58a.667.667 0 0 0-.326-1.293c-1.86.469-3.76.93-5.664 1.374.368-.94.765-1.868 1.188-2.782a322.282 322.282 0 0 0 16.517-4.432.667.667 0 0 0-.38-1.277 320.143 320.143 0 0 1-15.389 4.155c5.678-11.294 15.452-20.446 27.966-25.214 12.44-4.74 25.744-4.441 37.449.136a353.39 353.39 0 0 1-12.922 6.513.667.667 0 0 0 .575 1.203 357.803 357.803 0 0 0 13.95-7.058c.931.4 1.851.828 2.758 1.283a350.03 350.03 0 0 1-20.367 10.202.666.666 0 1 0 .556 1.21c6.926-3.18 14.07-6.769 21.236-10.669a51.655 51.655 0 0 1 9.615 6.713 368.169 368.169 0 0 1-15.844 8.505.666.666 0 1 0 .602 1.19 367.992 367.992 0 0 0 16.28-8.753 51.884 51.884 0 0 1 5.17 5.58 339.103 339.103 0 0 1-10.39 5.825.667.667 0 0 0 .632 1.174 352.067 352.067 0 0 0 8.923-4.971c.637-.369 1.193-.692 1.66-.967a51.651 51.651 0 0 1 3.062 4.514 52.387 52.387 0 0 1 4.105 8.427Z"/><path d="M1230.198 412.585a.667.667 0 0 1-.38.863c-.4.155-.8.309-1.2.461l-.287.11a217.42 217.42 0 0 1-5.425 1.975.667.667 0 0 1-.44-1.259 217.58 217.58 0 0 0 5.393-1.962l.284-.109c.398-.151.795-.304 1.192-.459a.667.667 0 0 1 .863.38ZM1234.198 433.39a.667.667 0 0 1-.395.856 236.944 236.944 0 0 1-9.161 3.152.666.666 0 1 1-.409-1.269 235.447 235.447 0 0 0 9.11-3.134.666.666 0 0 1 .855.395ZM1260.44 427.651a.666.666 0 0 1-.308.891 297.434 297.434 0 0 1-15.828 7.164.666.666 0 1 1-.512-1.23 295.923 295.923 0 0 0 15.757-7.133.666.666 0 0 1 .89.308ZM1261.668 470.682a.667.667 0 0 1-.35.876 242.74 242.74 0 0 1-8.99 3.649l-.288.109c-.536.203-1.082.408-1.626.61a.667.667 0 0 1-.462-1.25c.54-.2 1.083-.404 1.615-.606l.285-.108c2.88-1.1 5.89-2.322 8.941-3.63a.666.666 0 0 1 .875.35ZM1245.404 419.204a.667.667 0 0 1-.338.88 270.886 270.886 0 0 1-5.77 2.48.666.666 0 1 1-.511-1.231c1.874-.78 3.805-1.61 5.74-2.469.336-.149.73.003.88.34ZM1338.704 469.64c-2.487 1.506-2.506 1.573-1.104 4.122-1.506-2.488-1.573-2.506-4.122-1.105 2.488-1.506 2.506-1.573 1.104-4.122.707 1.166 1.096 1.79 1.574 1.979l.005.002c.54.21 1.193-.134 2.543-.877ZM1183.341 390.092c-3.208 1.942-3.231 2.029-1.424 5.315-1.943-3.208-2.029-3.232-5.316-1.424 3.209-1.943 3.232-2.03 1.425-5.316 1.942 3.209 2.029 3.232 5.315 1.425ZM1292.432 314.024c-3.208 1.942-3.231 2.029-1.424 5.315-1.943-3.208-2.03-3.231-5.316-1.424 3.209-1.943 3.232-2.03 1.425-5.316 1.942 3.209 2.029 3.232 5.315 1.425ZM1228.727 316.862c-3.209 1.943-3.232 2.03-1.425 5.316-1.942-3.209-2.029-3.232-5.315-1.425 3.208-1.942 3.232-2.029 1.424-5.315 1.943 3.208 2.03 3.231 5.316 1.424ZM1279.625 373.293c-3.208 1.943-3.232 2.03-1.424 5.316-1.943-3.209-2.03-3.232-5.316-1.425 3.209-1.942 3.232-2.029 1.425-5.315 1.942 3.208 2.029 3.232 5.315 1.424ZM1116.005 373.322c-1.83 1.108-1.843 1.157-.812 3.031-1.108-1.83-1.157-1.843-3.032-.812 1.83-1.108 1.843-1.157.813-3.031 1.107 1.83 1.157 1.842 3.03.812ZM1210.372 513.563c-3.208 1.943-3.232 2.03-1.424 5.316-1.943-3.209-2.03-3.232-5.316-1.424 3.209-1.943 3.232-2.03 1.425-5.316 1.942 3.209 2.029 3.232 5.315 1.424ZM1310.897 423.142a6.042 6.042 0 0 1-2.208 8.24 6.042 6.042 0 0 1-6.66-.417 5.997 5.997 0 0 1-2.095-2.947 6.042 6.042 0 0 1 2.723-7.084 6.03 6.03 0 0 1 5.686-.182 5.993 5.993 0 0 1 2.554 2.39Z"/></g><path d="M1006.949 496.154c-56.25 1.17-57.2 2.12-58.37 58.37-1.17-56.25-2.12-57.2-58.37-58.37 56.25-1.17 57.2-2.12 58.37-58.37 1.17 56.25 2.12 57.2 58.37 58.37Z" fill="#DDD"/><circle cx="600" cy="250" r="20" fill="#DDD"/><circle cx="600" cy="500" r="15" fill="#DDD"/><circle cx="1111" cy="300" r="15" fill="#DDD"/><circle cx="860" cy="100" r="8" fill="#DDD"/><circle cx="1200" cy="100" r="6" fill="#DDD"/><circle cx="560" cy="50" r="5" fill="#DDD"/><circle cx="430" cy="600" r="5" fill="#DDD"/><text transform="rotate(30 1100 360)" font-size="66" fill="#0F0" font-weight="bold" stroke-width="3">
        <tspan x="860" y="460">
            基本原理
        </tspan>
    </text><text font-size="66" fill="#0FF" font-weight="bold">
        <tspan x="200" y="380">
            HashMap
        </tspan>
    </text><text font-size="66" fill="#ff6b81" font-weight="bold">
        <tspan x="600" y="420">
            Java 8
        </tspan>
    </text></svg>