<svg xmlns="http://www.w3.org/2000/svg" width="980" height="1016" viewBox="0 0 1822 1889" shape-rendering="geometricPrecision" text-rendering="geometricPrecision" image-rendering="optimizeQuality" fill-rule="evenodd" clip-rule="evenodd"><defs><linearGradient id="id1" gradientUnits="userSpaceOnUse" x1="1187.95" y1="-741.495" x2="1152.3" y2="1843.71"><stop offset="0" stop-color="#b2b3b3"/><stop offset=".322" stop-color="#393185"/><stop offset=".612" stop-color="#9d9e9e"/><stop offset="1" stop-color="#00a0e3"/></linearGradient><linearGradient id="id2" gradientUnits="userSpaceOnUse" x1="841.577" y1="679.592" x2="593.107" y2="261.37"><stop offset="0" stop-color="#180e43"/><stop offset="1" stop-color="#1c1b17"/></linearGradient><clipPath id="id0"><path d="M628 215c135-176 512-144 608 81 77 180 90 453-125 540-200 80-506 42-574-194-42-147-18-287 76-407 5-7 10-13 15-20zm521 1573c-61 47-154-71-150-73 0 0 70 4 89 0 27-5 88-11 83 36-2 15-12 26-22 37zM279 825c52-42 106-11 95-83-12-76 102 105 18 191-36 38-40-5-27-41 28-83-88-89-66-38 9 20 93 16 35 40-6 3 31 13 2 32-24 16-92-49-63-92l6-9zm928 971c-29 152-228 45-236-79-1-19 44 44 60 57 141 121 164-85 176-4 1 10 1 17 0 26zm-216-248c12 11 128-24 149-39 21-14 36 95-120 70-49-7-94-59-33-66 16-1 126-26 125-36-1 0-64 15-72 16-34 7-96 48-90-39 0 0 55 9 62 9 65-2 72-12 120-40 12-7 32 77-15 92-43 14-81 22-126 33zm187 152c19 58-60-22-18-20 9 0 15 13 18 20zm-583 74c-54-56 0-135 9-106 13 45 10 103 86 83 86-21 149-177 122-75-29 109-118 174-217 98zm123-50c-79 45-86-18-110-79-2-7-6-41 20-11 48 56 222 1 103 81l-13 9zm391-135c24-5 62-22 49 25-4 16-36 30-44 41 10 7 71-61 41-1-34 70-216 63-183-25 11-27-25-21 33-13 29 4 125-8 38-6-4 1-85-3-63-17 1-1 95 2 125-3l4-1zm-443-24s-46-26-35-62c1-4 59 23 85 26 4 0 115-5 85 13-3 2-95 24-30 15 36-5 37-11 46 19 26 94-181 88-186 29 17-7-18-55 2-55 5 0 22 12 33 15zm-17-216c40 22 28 25 83 42 33 10 62 14 96 21 9 24 7 87-30 97-45 12-155 11-162-52-5-51-3-14 70 6 2 0 41 17 17 0-36-26-110 4-79-108l3-6h2zm43-181c8-7 15 22 25 36 40 59 149 111 121 170-23 46-183-26-186-51-3-23 29-137 40-155zm250 223c-3-76-11-41 51-81 16-11 117-77 123-42 6 40-3 34 12 82 23 69-32 86-91 96-56 9-90 5-95-55zm355-172c25-34 4 87 3 87-11 16-24-30-25 20-2 75-27 12-32 10-19 16-19 57-35-3-14-51-8 48-29 29-34-30-15-114-37-30-31 7-9-105 5-107 10-2 114 33 150-6zm-79 7c-50-1-91-24-13-19 10 1 127 0 50 17-13 3-23 3-37 2zm-120-35c35-22 14 40 12 42-9 9-92 37-135 73-22 18-114 13-141-9-73-57-70-41-122-118-11-17 52 21 63 25 93 37 235 40 323-13zm-106-44c41 14 124-47 127-31 8 57-28 68-78 82-106 32-229 25-323-39-19-13-49-59-3-42 73 27 167 30 243 24 13-1 23 2 34 6zm38-120c57 5 52 80 34 89-20 10-111 36-108-3 4-58 2-88 74-86zm-214-2c5 0 188 2 156 11-23 7-179-1-182 0 4 17 12-15 13 43 0 47 34 37 37 19 2-18-4-19 6-28 9-8-32-21-15 14 8 15-15 39-15-27 0-17 68 1 100-8 40-12 28 75 23 77-12 7-254 8-244-54 8-47 82-47 121-47zm-145-44c35 68 4 136-4 26 0-8-1-20 4-26zm288-47c13-1 43-4 31 20-6 10-81 11-60-15 5-6 21-5 29-5zm-200-28c28 7 150 24 155 26-9 17-165 5-191-33-6-9 34 6 36 7zm-306-36c14 32-25 145-56 108-11-13 43-110 47-112s7 1 9 4zm735-1c17 37 43 67 64 116 24 56 19 57-59 77-116 29 25 8 75-19 9-5 20 37 5 48s-50 35-8 15c22-10 18-44 33 33 17 88 8 59-92 56-58-1-50-1-55-71-3-36 22-8 81-32 31-12 68-42 22-17-32 18-92 33-119 1-95-111 1-118 37-186-33 18-112 103-86 143 22 35 59 63 5 74-23 4 34-92-61-92-45 0-105 28-103-21 1-28 5-32 43-22 23 5 25 51 34-6 10-59-18-29 67-55 56-17 62-25 107-44 6-2 8-2 10 2zm-674-2c51-8 46 158 51 108 4-38-33-145 3-103 11 13 63 143 28 34-13-43-43-56 20-67 42-8 85 101 216 109 75 5 89-12 84 64-62 6-151-4-204 14-27 10-25-25-37-55-15-41-13-44-21-16-12 51-222 87-202 10 10-43 13-34 17-81 3-34 26-18 37 16 0 1 24 124 25 77 1-23-21-105-21-105 0-4 1-4 4-5zm-182-20c-51 31-5-35 2-5l-2 5zm881-41c3 50-173 96-202 100-114 18-296 1-378-92-10-10 62 34 75 40 148 64 365 49 495-48 3-2 9-6 10 0zm27-557c98 74 124 289 75 265-8-5-35-140-43-163-3-11-36-95-37-103l5 1zm76 283c31 3 25 29 24 59-2 100-30 217-108 288-23 21-31-21-26-28 25-36 22-57 47-102 62-113 37-182 50-210 3-7 6-7 13-7zM578 209c100-90-8 65-18 83-9 15-51 115-62 114-51-2 40-154 58-175 7-8 14-15 22-22zm-79 230c10 110-12 166 49 281 7 13 84 123 19 109-80-18-156-299-95-396 9-14 22-14 27 6z"/></clipPath><style>.fil243,.fil244{fill:#fefefe}.fil242{fill:#fefefc}.fil241{fill:#fdfdfc}.fil240{fill:#fcfdfa}.fil239{fill:#fbfdf9}.fil238{fill:#fbfcf7}.fil237{fill:#fbfcf6}.fil236{fill:#fafbf5}.fil235{fill:#f9fbf3}.fil234{fill:#f9faf1}.fil233{fill:#f8faf0}.fil232{fill:#f7f9ee}.fil231{fill:#f6f9ed}.fil230{fill:#f6f8eb}.fil229{fill:#f5f8ea}.fil228{fill:#f4f8e8}.fil227{fill:#f3f7e8}.fil226{fill:#f3f7e6}.fil225{fill:#f2f6e5}.fil224{fill:#f1f6e4}.fil223{fill:#f0f5e2}.fil222{fill:#f0f5e1}.fil221{fill:#f0f5e0}.fil220{fill:#eff4df}.fil219{fill:#eef4dd}.fil218{fill:#edf3dc}.fil217{fill:#edf3db}.fil216{fill:#ecf2d9}.fil215{fill:#eaf1d8}.fil214{fill:#eaf0d6}.fil213{fill:#e9f0d4}.fil212{fill:#e7efd2}.fil211{fill:#e7efd1}.fil210{fill:#e6eecf}.fil209{fill:#e4edce}.fil208{fill:#e3eccc}.fil207{fill:#e2ecca}.fil206{fill:#e0ebc9}.fil205{fill:#dfeac7}.fil204{fill:#dde9c6}.fil203{fill:#dce8c5}.fil202{fill:#dbe8c4}.fil201{fill:#d8e7c4}.fil200{fill:#d7e6c4}.fil199{fill:#d4e4c3}.fil198{fill:#d2e3c3}.fil197{fill:#d0e2c4}.fil196{fill:#cfe1c3}.fil195{fill:#cee1c3}.fil194{fill:#ccdfc3}.fil193{fill:#cbdec3}.fil192{fill:#c9ddc3}.fil191{fill:#c8ddc3}.fil190{fill:#c7dcc3}.fil189{fill:#c6dcc3}.fil188{fill:#c5dbc2}.fil187{fill:#c4dac3}.fil186{fill:#c4d9c3}.fil185{fill:#c3d8c2}.fil184{fill:#c2d8c2}.fil183{fill:#c1d7c3}.fil182{fill:#bfd6c2}.fil181{fill:#bed5c2}.fil180{fill:#bdd5c2}.fil179{fill:#bbd4c2}.fil178{fill:#bad3c2}.fil177{fill:#b8d1c2}.fil176{fill:#b6d0c2}.fil175{fill:#b5cfc1}.fil174{fill:#b3cec1}.fil173{fill:#b1ccc1}.fil172{fill:#afcbc1}.fil131{fill:#a5ab90}.fil130{fill:#a4aa8e}.fil129{fill:#a4a98d}.fil133{fill:#a5ae97}.fil132{fill:#a5ad94}.fil128{fill:#a2a88b}.fil127{fill:#a2a78a}.fil171{fill:#adcac1}.fil134{fill:#a4af99}.fil126{fill:#a1a689}.fil125{fill:#a0a588}.fil170{fill:#acc9c1}.fil135{fill:#a4b09c}.fil124{fill:#9fa487}.fil136{fill:#a3b19f}.fil123{fill:#9ea386}.fil169{fill:#aac8c1}.fil137{fill:#a2b1a2}.fil122{fill:#9da285}.fil168{fill:#a9c7c1}.fil138{fill:#a2b2a3}.fil121{fill:#9ca185}.fil120{fill:#9ba084}.fil166{fill:#a7c6c1}.fil167{fill:#a8c6c0}.fil140{fill:#a1b3a7}.fil139{fill:#a1b3a6}.fil119{fill:#9a9f83}.fil165{fill:#a6c5c0}.fil141{fill:#a0b4a9}.fil118{fill:#999f82}.fil163,.fil164{fill:#a5c4c0}.fil143{fill:#9fb5ac}.fil142{fill:#a0b4ab}.fil117{fill:#989d82}.fil162{fill:#a4c4c0}.fil161{fill:#a3c3c0}.fil144{fill:#9fb5af}.fil116{fill:#979d82}.fil115{fill:#979c81}.fil159,.fil160{fill:#a2c2c0}.fil145{fill:#9eb6b0}.fil114{fill:#959c80}.fil158{fill:#a1c2c0}.fil157{fill:#a0c1bf}.fil146{fill:#9db7b3}.fil113{fill:#949b80}.fil156{fill:#9fc0bf}.fil147{fill:#9db8b5}.fil112{fill:#939a80}.fil111{fill:#939a7f}.fil155{fill:#9ebfbe}.fil154{fill:#9ebebe}.fil153{fill:#9dbdbe}.fil149{fill:#9cb9b9}.fil148{fill:#9bb8b7}.fil110{fill:#92997f}.fil152{fill:#9cbcbd}.fil151{fill:#9bbbbc}.fil150{fill:#9bbabb}.fil109{fill:#91987e}.fil108{fill:#90977e}.fil107{fill:#8f977e}.fil106{fill:#8f977d}.fil105{fill:#8d967c}.fil104{fill:#8c957c}.fil103{fill:#8b947c}.fil102{fill:#8b947b}.fil101{fill:#8a937b}.fil100{fill:#89927a}.fil99{fill:#88927a}.fil98{fill:#88917a}.fil96,.fil97{fill:#869079}.fil94,.fil95{fill:#848f79}.fil46{fill:#889ea7}.fil48{fill:#889ea6}.fil49{fill:#889da5}.fil50{fill:#889da4}.fil51{fill:#889ca2}.fil52{fill:#889ca1}.fil53{fill:#889ba0}.fil54{fill:#879b9f}.fil92,.fil93{fill:#828e78}.fil45{fill:#879da5}.fil44{fill:#879ca5}.fil43{fill:#879ca4}.fil55{fill:#879a9d}.fil56{fill:#869a9c}.fil57,.fil58{fill:#86999a}.fil59{fill:#869898}.fil60{fill:#869897}.fil61{fill:#859796}.fil62{fill:#859794}.fil63{fill:#859693}.fil64{fill:#859692}.fil65{fill:#859691}.fil66{fill:#859590}.fil67{fill:#85958f}.fil91{fill:#818d77}.fil42{fill:#869ca3}.fil41{fill:#869ba3}.fil68{fill:#83948e}.fil69{fill:#84948d}.fil70{fill:#83938c}.fil71{fill:#83938a}.fil72{fill:#839389}.fil73{fill:#839288}.fil74{fill:#839287}.fil75{fill:#839286}.fil76{fill:#829185}.fil77{fill:#829184}.fil78{fill:#829082}.fil79{fill:#829081}.fil80{fill:#829080}.fil81{fill:#818f7f}.fil90{fill:#808d77}.fil89{fill:#808c77}.fil40{fill:#849aa2}.fil82{fill:#808e7d}.fil83{fill:#808e7c}.fil84{fill:#808d7b}.fil85{fill:#7f8d79}.fil86{fill:#7f8c79}.fil87,.fil88{fill:#7f8c77}.fil39{fill:#8499a1}.fil38{fill:#8399a0}.fil37{fill:#82989f}.fil36{fill:#82979e}.fil35{fill:#81979d}.fil34{fill:#81969c}.fil33{fill:#7f959b}.fil32{fill:#7e959b}.fil31{fill:#7e949a}.fil30{fill:#7d9399}.fil29{fill:#7d9398}.fil28{fill:#7c9297}.fil26,.fil27{fill:#7b9196}.fil25{fill:#7a9095}.fil24{fill:#798f94}.fil23{fill:#798f93}.fil22{fill:#788e92}.fil21{fill:#778d91}.fil20{fill:#778d90}.fil19{fill:#768d90}.fil18{fill:#758b8f}.fil17{fill:#758b8e}.fil16{fill:#748b8d}.fil15{fill:#748a8d}.fil14{fill:#73898c}.fil13{fill:#72898b}.fil12{fill:#72888a}.fil11{fill:#71888a}.fil10{fill:#718789}.fil9{fill:#6f8688}.fil8{fill:#6f8687}.fil7{fill:#6e8586}.fil6{fill:#6d8485}.fil5{fill:#6d8384}.fil4{fill:#6c8384}.fil3{fill:#6c8383}.fil2{fill:#6c8282}.fil1{fill:#6b8181}.fil47{fill:#889da6}.fil247{fill:#000}</style></defs><g id="Слой_x0020_1"><path d="M79 938c4-6 2-2 5-6 10-10 4-10 13-14 6 4 2 4 8 7 4 3 6 2 10 5-1 9 1 1-4 8l-14 20c-4-4-4-7-8-11-6-7-6-3-10-9zm302 382c-10-8 0-12 7-22 4-5 8-1 9 5s20-6 13 11c-2 4-14 20-18 20-9 1-3-1-6-10l-1-2-4-2zM73 259c-12-3-3-5-12-14-3-2-6-1-5-8 1-3 13-19 22-10 15 16 9 3 13 11-5 6-3 2-10 6-2 11 0 13-8 15zM83 17c3-5 4-4 9-10 11-15 15-2 20 2 6 4 7 2 12 4-5 8-7 5-11 9-5 4-3 9-6 15-5 0-2 1-7-1l-5-5-7 6c-1-14 6 1 3-12-3-11-2 1-8-8zM1389 0c8 5 1 5 7 12 7 8 5 1 12 3-1 8-6 8-10 13-7 7-2 7-9 12-11-3-4-5-11-12-6-5-7 1-9-11 6-6 5 0 11-7 6-6 1-6 9-10zm55 1369c-61 24-101 45-99 53 2 9 48 2 114-16 16 23 43 39 73 39 50 0 90-40 90-90v-2c69-26 117-50 114-59-2-9-53-1-125 19-15-28-44-47-79-47-49 0-89 40-89 89 0 5 0 9 1 14zm349 346c6 3 3 3 7 6 6 4 4 0 9 3 0 13-3 21-11 26-4 3-3 3-9 4-5-14 2-13-12-17 2-9 2-6 7-12 4-5 4-7 9-10zm-451 7l1-13-12-3c1-9 1-5 6-10 4-4 3-4 8-8 9 0 20 8 23 14-6 5 7-4-3 1-5 3-1-1-5 3-8 9 5 23-18 16zm284-30h-10c-3-5-3-9-7-13-6-5-8-1-9-11 9-6 5 2 17-10 0-1 1-1 1-1 6 2 13 9 17 13-3 7-1 1-4 4-6 8-1 8-5 18zm-159-53l-5-11c-8 2-2 1-10 4 1-5 1-6 2-10l2-4c1-4 11-16 15-15 4 0 5 5 16 13-5 9 5-6-2 3-13 13-2 20-18 20zm209-36c4-9 7 2 19-12 5-7-2-3 7-6 10 4 3 3 10 10 6 6 6 1 9 10l-10 3c-1 7-1 11-4 17-9-1-11-5-15-12-10-14-2-4-16-10zm-270-15c-5-2-7-7-11-11-7-7-9-4-15-9 5-2 8-1 12-5 5-4 2-5 7-12 14-2 1-1 20 10l-13 27zm357-94c-10-2 0 2-9-8l-1-1-1-1-2-2c-10-11-9-2-13-11 8-4 5 2 13-6 5-5 2-7 9-11 6 4 4 4 10 10 4 3 7 4 10 7 0 1 0 0-1 1 0 1-1 1-1 1-2 1-1 0-3 2-3 3-2 1-4 5-4 7-2 9-7 14zm-485-237c-8-3-1 1-6-5-1-1-2-3-3-3-13-15-12-8-15-14 3-7 8-5 16-7 3-6 1-6 4-12 9 3 3 1 9 9 4 6 5 3 10 8-2 9-2 2-7 12-3 6-2 10-8 12zm504-32c-13 0-6-2-12-11-7-9-10-2-14-12 5-7 3-1 11-7 7-5 4-6 11-11 7 5 2 5 7 10s7 3 13 6c-2 6-5 3-10 10-5 6-2 10-6 15zm-106-116c6-5 3-1 12-3 3-6 2-10 8-14 9 2 5 5 11 11s9 4 15 8c-8 6-8 1-13 11-3 5-4 11-11 13-6-6-3-10-9-16-9-10-7 3-13-10zm-315-18c6-4 2-5 10-10 10 2 4 2 10 8 2 4 2 3 4 5 1 0 1 0 2 1l4 3c-15 12-1-5-18 19-7-2-4 0-9-6-2-2-4-6-6-7-5-2-7-4-11-8l2-3c1 0 4-2 4-2l4-1 4 1zm104-62c6-6 5-2 10-5 7-5 0-4 9-10 8 3 6 4 10 8 8 9 7 1 11 9-4 7-4 3-11 7l-2 13h-15v-13c-9-2-11-1-12-9zm106-75c3-6 5-5 10-11 6-6 4-9 9-10 4 7-1 5 6 10s5-2 9 8c-5 10-14 6-8 24l-16-2-1-12c-2-1-3-1-5-2-4-3-2 0-4-5zm163-35c9-5 4-6 12-10 6 6 1 4 7 11 4 4 6 3 6 8 0 9-4 2-8 9-1 3-2 8-3 12-11-2-10-3-14-11-5-12-6-2-13-10 2-6 7-6 13-9zm46-100c6-8 6-3 12-8s1-7 12-8l5 11c1 0 4 2 5 2l4 3c-8 5-10 11-13 18l-1 3c-9-4-3-4-14-5 0-17-5-9-10-16zm-217-26l1-1c17-8 10-5 17-15l19 16c-3 6-6 5-9 10s-1 7-5 11c-9 0-8-3-13-10-4-8-6-5-13-10h1c1 0 1-1 2-1zm170-149c14 6 1 11 16 8 2 11 2 5 5 12-10 5-8-1-11 10-1 6-1 10-9 8-9-1-5-5-8-11-3-9-3-1-10-9 2-6 15-17 17-18zm-137-15c1-4 18-17 18-18 8 6 1 4 10 8 6 2 4 0 10 4l-6 9c-7 5-6 2-6 15l-13 3c-1-1-1-1-1-2-7-25-6-7-12-19zm152-151c6 6 1 5 8 9s6-1 10 6c-3 7-3 1-8 8-2 3-2 9-4 13-11-1-8-4-14-11-7-6-9-2-12-10 7-4 6 0 12-6 5-5 1-5 8-9zm48-93c6-5 3-9 10-9 6 1 4 5 8 10 6 7 6 1 8 10-7 7-5 0-9 9-5 10 2 5-9 10l-12-16c-8-7-6 1-8-8 7-6 6 0 12-6zm-234-133c50-9 91 28 99 69 14 69-65 137-134 86-59-44-38-141 35-155zm-184 87c5-9 3 0 11-8 4-5 2-6 6-11 3 2 16 10 17 13 1 10-6 19-12 25-8-4-3-6-17-15-6-4-1 3-5-4zm349-91c6-3 8 0 14-6 7-5 1-5 9-9l17 17c-3 6-5 5-8 10-4 5-3 7-7 12-7-3-9-9-13-13-4-2-11-7-12-11zm-470-11c4-6 0-1 6-5 13-7 3-7 13-13 8 3 5 5 10 9 7 7 6-1 10 7-6 8-6-2-11 10-3 6-3 9-7 13-8-2-6-6-10-12-7-9-7 1-11-9zm177-41c4-3 3-5 7-9 7 1 15 10 17 16-3 7-3 3-6 11s0 7-7 11c-9-6-3-7-9-13s-7 0-12-9c5-6 4-1 10-7zm145-78c2 2 5 2 9 5-3 6-5 4-10 9-2 3-8 24-17 2-4-9-1-2-5-6-4-3-1 0-4-3l-2-3c4-2 8-3 12-7 5-5 2-6 11-6 3 3 4 6 6 9zm-376-19c5-3 7-2 11-7 5-5 4-7 10-11 4 3 5 7 8 12l12 2c-4 10-5-1-10 15-2 6-4 11-14 11-3-7 0-9-6-14-6-4-8-2-11-8zm532-25c14-6 5-9 15-12 4 4 2 6 6 9 3 3 5 2 9 6-2 7 1 0-4 7-9 15-6 15-17 15-4-5-2-7-6-12-6-6-6-1-11-8l8-5zM314 205c4 4 3 5 7 8 5 5 3 0 7 7-5 7-2 0-6 6-2 4 0 3-2 7-3 5-8 4-15 4-11-21-1-8-13-15 2-5 15-16 22-17zm102 11c2-8 3-6 10-9 10-5 2-4 11-8 7 3 3 2 8 7 5 4 5 2 8 6-2 7-3 3-7 11-4 7 0 4-7 10-13-1 0-2-10-3-9-1 1 1-7 2 0-7 1-1 3-10-1-1-1-1-2-1l-7-5zm666-21c22-8 9-7 19-13l17 14c-3 6-4 4-9 10-2 3-3 6-6 9-8-2-4-3-10-9-6-5-8-3-11-11zm-124-18c-3-2-1 0-3-3l-6-7c-4-4-7-4-8-9-1-6 10-16 15-19l14 14c-2 6-8 21-12 24zm-800-46c4-9 3-3 9-8 7-5 3-3 6-11 10 1-1-2 10 5 3 3 11 7 11 12 1 1-10 20-13 22-7-3-1 1-10-9l-1-2c-11-13-8-1-12-9zm466-6c4-9 5-5 12-10 7-4 2-4 9-8 6 2 13 9 16 14l-14 23c-4-1-7-3-9-6l-3-10-11-3zm209-86c3-5 4-4 10-9 5-5 4-6 11-7 5 4 2 4 7 9l8 7c-17 17-5 10-13 19-15-1-14-10-14-14-9-2-6 1-9-5zm149-3c3-6 6-4 12-9s3-7 12-8c4 4 3 7 7 10 3 2 8 2 11 4-2 6-5 4-10 9-5 4-3 9-6 14-14 1-13-10-14-11-4-12-2-2-12-9zM376 25c4-6 4-1 11-8 5-5 1-5 9-9 4 2 4 4 8 7 11 12 9 6 0 18-6 8 2 5-6 10-13-1 0-2-10-10-6-4-9-1-12-8zm108-2c5-4 6-2 10-6s2-5 8-9l13 10c3 2 1-1 3 3-2 9-4 5-8 14-3 7 0 9-12 8-4-7 1-8-5-13-5-4-6 1-9-7zM66 770c7-2 4 2 10-4 5-5-1-4 8-7 17 9 13 26 2 37-11-1-6-6-13-11-6-6-9-1-7-15zm31-178c1-9 3-8 9-11 8-5 4-5 9-9 1 0 15 10 16 16 0 6-13 20-17 21-7-6-1-5-7-11-3-4-5-2-10-6zm69-175c-13-2-9-14 2-9 1 7 2 3-2 9zm-144-7c2-10 1-4 8-10 4-4 3-4 7-8 9 1 13 6 16 14-1 5-8 16-14 19-7-3 0 1-5-5-9-12-6-2-12-10zm159-4c1-9 4-13 13-9 3 7-2 12-6 14-5-2-4-1-7-5zm-10-32c5 0 10 5 12 9-6 4-4 3-12 2v-11zm75 9c-2-9 3-14 11-15 0 9-1 14-11 15zm-46-81c50-15 71 66 27 79-26 7-47-10-52-27-4-11-3-25 2-35 5-11 10-14 23-17zm51 7c0-7 2-6 6-7 4 5 3 5 2 13-4-1-7 0-8-6zm91 1549l-13-2c-6-21-3-9-14-16 1-12 5-7 10-9 7-4 1-8 14-9 7 4 0 1 7 7 5 5 3 2 8 5-8 15-8 0-12 24zm-140-594c-41 0-74 32-74 73 0 40 33 73 74 73 40 0 73-33 73-73 0-41-33-73-73-73zM19 1840c-7-4-18-14-19-23 4-3 5-2 9-6 4-5 2-5 10-7 6 4 2 3 7 8 5 6 4 3 9 7-5 8-5 4-10 9s0 6-6 12zm169-44c-6-5-2-3-6-10-12-3-22-1-4-17l1-1c14-14 6-6 27 5l-12 17c-5 6 2 2-6 6zm122-75c5-9 1 0 12-8 7-5 4-5 8-12 8 0 6 2 11 7 8 9 8 1 13 9-4 9-5 2-11 8-4 5-1 9-4 16-11 0-7-2-14-10-9-11-8-3-15-10zm-196-33c-12 2-11-1-16-8-4-8-10-8-12-13 5-6 6-4 11-7 9-6 3-7 13-9 5 5 3 5 8 9 4 4 7 4 10 7-20 14-8 9-14 21zm136-40c-10-2-6-3-18-3l2-11c-3-1-4-2-4-2-12-7-10 0-12-8 6-4 8 0 14-4 7-5 0-6 10-11 9 4 4 5 10 10 9 7 9-1 12 7-18 5-14 16-14 22zm-45-122c7 3 14 12 17 18-7 13-1-7-9 19l-12 2c-4-19-3-11-15-19 1-8 1-6 9-10 7-4 2 0 5-4l5-6zm-158 21c-11-4-4-7-15-14l-3-1c0-1-1-1-1-1 4-10 19-18 22-17 7 4 1 1 6 6 3 4 3 3 7 5-2 6-3 4-7 11-4 9-2 7-9 11zm-15-134c-9-5-1-7-9-13-3-3-10-4-13-7 1-14 8-3 16-15l4-8c3 3 0 0 4 5 2 3 1 3 3 5 5 6 6 3 13 6 0 10-5 4-10 12-7 9 2 8-8 15zm28-177c8 4-1 2 14 14l5 6c-25 16-8 7-18 19-7-4-4-3-9-10-5-8-8-7-10-9-6-9 2-7 7-10 8-4 2-5 11-10zm199-92l-4-11-12-4c0-10 2-6 10-10 7-3 5-7 11-10 5 2 13 10 16 15-4 8 0 0-4 6-5 6-1 0-4 7-2 6 4 2-3 7-5 3-5 1-10 0zm-175-26c-5-7-1-7-8-13-12-10-12-10 1-18 4-3 4-5 9-8 3 2 12 12 15 15 0 1-11 22-17 24zm62-43c-14 0-7 0-14-9-5-8-9-5-10-13 3-2 7-3 10-6 6-4 2-5 9-10 11 7-2 3 19 16-4 6-6 4-10 9-3 4-1 8-4 13z" fill="url(#id1)"/><g clip-path="url(#id0)"><path class="fil1" d="M949 1058L510 2370l14 13z"/><path id="1" class="fil1" d="M949 1058L522 2381l12 11z"/><path id="2" class="fil2" d="M949 1058L532 2389l12 11z"/><path id="3" class="fil3" d="M949 1058L542 2398l13 10z"/><path id="4" class="fil4" d="M949 1058L552 2406l13 10z"/><path id="5" class="fil5" d="M949 1058L562 2414l13 9z"/><path id="6" class="fil6" d="M949 1058L572 2422l13 9z"/><path id="7" class="fil7" d="M949 1058L583 2429l12 9z"/><path id="8" class="fil8" d="M949 1058L593 2436l13 9z"/><path id="9" class="fil9" d="M949 1058L603 2443l13 9z"/><path id="10" class="fil10" d="M949 1058L614 2450l13 9z"/><path id="11" class="fil11" d="M949 1058L624 2457l13 8z"/><path id="12" class="fil12" d="M949 1058L635 2464l13 7z"/><path id="13" class="fil13" d="M949 1058L645 2470l13 7z"/><path id="14" class="fil14" d="M949 1058L656 2476l13 7z"/><path id="15" class="fil15" d="M949 1058L666 2482l14 7z"/><path id="16" class="fil16" d="M949 1058L677 2487l13 7z"/><path id="17" class="fil17" d="M949 1058L688 2493l13 6z"/><path id="18" class="fil18" d="M949 1058L699 2498l13 6z"/><path id="19" class="fil19" d="M949 1058L709 2503l14 6z"/><path id="20" class="fil20" d="M949 1058L720 2508l14 5z"/><path id="21" class="fil21" d="M949 1058L731 2512l14 5z"/><path id="22" class="fil22" d="M949 1058L742 2516l14 5z"/><path id="23" class="fil22" d="M949 1058L753 2520l14 5z"/><path id="24" class="fil23" d="M949 1058L764 2524l14 5z"/><path id="25" class="fil24" d="M949 1058L775 2528l14 4z"/><path id="26" class="fil25" d="M949 1058L786 2531l14 4z"/><path id="27" class="fil25" d="M949 1058L797 2535l14 3z"/><path id="28" class="fil26" d="M949 1058L808 2537l14 4z"/><path id="29" class="fil27" d="M949 1058L819 2540l14 3z"/><path id="30" class="fil28" d="M949 1058L830 2543l14 3z"/><path id="31" class="fil29" d="M949 1058L841 2545l14 3z"/><path id="32" class="fil30" d="M949 1058l-96 1489 13 2z"/><path id="33" class="fil31" d="M949 1058l-85 1491 14 2z"/><path id="34" class="fil32" d="M949 1058l-74 1493 14 1z"/><path id="35" class="fil33" d="M949 1058l-63 1494 14 1z"/><path id="36" class="fil34" d="M949 1058l-52 1495 14 1z"/><path id="37" class="fil35" d="M949 1058l-41 1496 14 1z"/><path id="38" class="fil36" d="M949 1058l-29 1497h14z"/><path id="39" class="fil37" d="M949 1058l-18 1497h14z"/><path id="40" class="fil38" d="M949 1058l-7 1497h14z"/><path id="41" class="fil39" d="M949 1058l4 1497h14z"/><path id="42" class="fil40" d="M949 1058l16 1497h14z"/><path id="43" class="fil41" d="M949 1058l27 1497 14-1z"/><path id="44" class="fil42" d="M949 1058l38 1496 14-1z"/><path id="45" class="fil43" d="M949 1058l49 1495 14-1z"/><path id="46" class="fil44" d="M949 1058l60 1494 14-2z"/><path id="47" class="fil45" d="M949 1058l72 1493 13-2z"/><path id="48" class="fil46" d="M949 1058l83 1491 14-2z"/><path id="49" class="fil46" d="M949 1058l94 1489 14-2z"/><path id="50" class="fil47" d="M949 1058l105 1487 14-2z"/><path id="51" class="fil46" d="M949 1058l116 1485 14-3z"/><path id="52" class="fil48" d="M949 1058l127 1483 14-4z"/><path id="53" class="fil49" d="M949 1058l138 1480 14-4z"/><path id="54" class="fil50" d="M949 1058l149 1477 14-4z"/><path id="55" class="fil51" d="M949 1058l160 1474 14-4z"/><path id="56" class="fil52" d="M949 1058l172 1471 13-5z"/><path id="57" class="fil53" d="M949 1058l183 1467 13-5z"/><path id="58" class="fil54" d="M949 1058l193 1463 14-5z"/><path id="59" class="fil55" d="M949 1058l204 1459 14-5z"/><path id="60" class="fil56" d="M949 1058l215 1455 14-6z"/><path id="61" class="fil57" d="M949 1058l226 1450 14-6z"/><path id="62" class="fil58" d="M949 1058l237 1446 14-7z"/><path id="63" class="fil59" d="M949 1058l248 1441 13-7z"/><path id="64" class="fil60" d="M949 1058l259 1436 13-7z"/><path id="65" class="fil61" d="M949 1058l269 1430 14-7z"/><path id="66" class="fil62" d="M949 1058l280 1425 13-8z"/><path id="67" class="fil63" d="M949 1058l291 1419 13-8z"/><path id="68" class="fil64" d="M949 1058l301 1413 14-8z"/><path id="69" class="fil65" d="M949 1058l312 1407 13-8z"/><path id="70" class="fil66" d="M949 1058l322 1400 13-8z"/><path id="71" class="fil67" d="M949 1058l333 1394 13-9z"/><path id="72" class="fil68" d="M949 1058l343 1387 13-9z"/><path id="73" class="fil69" d="M949 1058l354 1380 13-10z"/><path id="74" class="fil70" d="M949 1058l364 1372 13-9z"/><path id="75" class="fil71" d="M949 1058l374 1365 13-10z"/><path id="76" class="fil72" d="M949 1058l384 1357 13-10z"/><path id="77" class="fil73" d="M949 1058l395 1349 12-10z"/><path id="78" class="fil74" d="M949 1058l405 1341 12-10z"/><path id="79" class="fil75" d="M949 1058l415 1333 12-11z"/><path id="80" class="fil76" d="M949 1058l425 1324 12-11z"/><path id="81" class="fil77" d="M949 1058l434 1316 13-12z"/><path id="82" class="fil78" d="M949 1058l444 1307 12-12z"/><path id="83" class="fil79" d="M949 1058l454 1298 12-12z"/><path id="84" class="fil80" d="M949 1058l464 1288 12-12z"/><path id="85" class="fil81" d="M949 1058l473 1279 12-12z"/><path id="86" class="fil82" d="M949 1058l483 1269 12-12z"/><path id="87" class="fil83" d="M949 1058l492 1259 12-12z"/><path id="88" class="fil84" d="M949 1058l502 1249 11-13z"/><path id="89" class="fil85" d="M949 1058l511 1239 12-13z"/><path id="90" class="fil86" d="M949 1058l520 1228 12-13z"/><path id="91" class="fil87" d="M949 1058l529 1218 12-14z"/><path id="92" class="fil88" d="M949 1058l539 1207 11-14z"/><path id="93" class="fil88" d="M949 1058l548 1196 11-14z"/><path id="94" class="fil88" d="M949 1058l556 1185 11-15z"/><path id="95" class="fil88" d="M949 1058l565 1173 11-14z"/><path id="96" class="fil89" d="M949 1058l574 1162 11-15z"/><path id="97" class="fil90" d="M949 1058l583 1150 10-15z"/><path id="98" class="fil91" d="M949 1058l591 1138 11-15z"/><path id="99" class="fil92" d="M949 1058l600 1126 10-15z"/><path id="100" class="fil93" d="M949 1058l608 1114 11-16z"/><path id="101" class="fil94" d="M949 1058l616 1101 11-15z"/><path id="102" class="fil95" d="M949 1058l625 1089 10-16z"/><path id="103" class="fil96" d="M949 1058l633 1076 10-16z"/><path id="104" class="fil97" d="M949 1058l641 1063 10-16z"/><path id="105" class="fil98" d="M949 1058l649 1050 9-16z"/><path id="106" class="fil99" d="M949 1058l656 1037 10-17z"/><path id="107" class="fil100" d="M949 1058l664 1023 10-17z"/><path id="108" class="fil101" d="M949 1058l672 1010 9-17z"/><path id="109" class="fil102" d="M949 1058l679 996 10-17z"/><path id="110" class="fil103" d="M949 1058l687 982 9-17z"/><path id="111" class="fil104" d="M949 1058l694 968 9-17z"/><path id="112" class="fil105" d="M949 1058l701 954 9-18z"/><path id="113" class="fil105" d="M949 1058l708 940 9-18z"/><path id="114" class="fil106" d="M949 1058l715 925 9-18z"/><path id="115" class="fil107" d="M949 1058l722 911 9-19z"/><path id="116" class="fil108" d="M949 1058l729 896 8-18z"/><path id="117" class="fil109" d="M949 1058l736 881 8-18z"/><path id="118" class="fil110" d="M949 1058l742 866 8-19z"/><path id="119" class="fil110" d="M949 1058l749 851 8-19z"/><path id="120" class="fil111" d="M949 1058l755 836 8-19z"/><path id="121" class="fil112" d="M949 1058l761 821 8-20z"/><path id="122" class="fil113" d="M949 1058l767 805 8-19z"/><path id="123" class="fil114" d="M949 1058l773 789 8-19z"/><path id="124" class="fil115" d="M949 1058l779 774 7-20z"/><path id="125" class="fil116" d="M949 1058l785 758 7-20z"/><path id="126" class="fil117" d="M949 1058l790 742 7-20z"/><path id="127" class="fil118" d="M949 1058l796 726 7-20z"/><path id="128" class="fil119" d="M949 1058l801 710 7-21z"/><path id="129" class="fil120" d="M949 1058l807 693 6-20z"/><path id="130" class="fil121" d="M949 1058l812 677 6-21z"/><path id="131" class="fil122" d="M949 1058l817 660 6-20z"/><path id="132" class="fil123" d="M949 1058l822 644 6-21z"/><path id="133" class="fil124" d="M949 1058l826 627 6-21z"/><path id="134" class="fil125" d="M949 1058l831 610 6-21z"/><path id="135" class="fil126" d="M949 1058l835 593 6-21z"/><path id="136" class="fil127" d="M949 1058l840 576 5-21z"/><path id="137" class="fil128" d="M949 1058l844 559 5-21z"/><path id="138" class="fil129" d="M949 1058l848 542 5-21z"/><path id="139" class="fil130" d="M949 1058l852 525 5-22z"/><path id="140" class="fil131" d="M949 1058l856 508 5-22z"/><path id="141" class="fil132" d="M949 1058l860 490 4-22z"/><path id="142" class="fil133" d="M949 1058l863 473 5-22z"/><path id="143" class="fil134" d="M949 1058l867 455 4-22z"/><path id="144" class="fil135" d="M949 1058l870 438 4-22z"/><path id="145" class="fil136" d="M949 1058l873 420 4-22z"/><path id="146" class="fil137" d="M949 1058l877 402 3-22z"/><path id="147" class="fil138" d="M949 1058l880 384 3-22z"/><path id="148" class="fil139" d="M949 1058l882 367 4-23z"/><path id="149" class="fil140" d="M949 1058l885 349 3-23z"/><path id="150" class="fil141" d="M949 1058l888 331 3-23z"/><path id="151" class="fil142" d="M949 1058l890 313 3-23z"/><path id="152" class="fil143" d="M949 1058l892 295 3-23z"/><path id="153" class="fil144" d="M949 1058l894 276 3-22z"/><path id="154" class="fil145" d="M949 1058l896 258 3-22z"/><path id="155" class="fil146" d="M949 1058l898 240 2-23z"/><path id="156" class="fil147" d="M949 1058l900 222 2-23z"/><path id="157" class="fil148" d="M949 1058l902 204 1-23z"/><path id="158" class="fil149" d="M949 1058l903 185 2-23z"/><path id="159" class="fil150" d="M949 1058l904 167 2-23z"/><path id="160" class="fil151" d="M949 1058l906 149 1-23z"/><path id="161" class="fil152" d="M949 1058l907 130 1-23z"/><path id="162" class="fil153" d="M949 1058l908 112v-23z"/><path id="163" class="fil154" d="M949 1058l908 93 1-23z"/><path id="164" class="fil155" d="M949 1058l909 75 1-23z"/><path id="165" class="fil156" d="M949 1058l909 57 1-23z"/><path id="166" class="fil157" d="M949 1058l910 38v-23z"/><path id="167" class="fil158" d="M949 1058l910 20v-23z"/><path id="168" class="fil159" d="M949 1058l910 1v-23z"/><path id="169" class="fil160" d="M949 1058l910-17v-23z"/><path id="170" class="fil161" d="M949 1058l910-36-1-23z"/><path id="171" class="fil162" d="M949 1058l909-54v-23z"/><path id="172" class="fil163" d="M949 1058l909-72-1-24z"/><path id="173" class="fil164" d="M949 1058l908-91-1-23z"/><path id="174" class="fil165" d="M949 1058l908-109-1-23z"/><path id="175" class="fil166" d="M949 1058l907-128-2-23z"/><path id="176" class="fil167" d="M949 1058l906-146-2-23z"/><path id="177" class="fil168" d="M949 1058l905-164-2-23z"/><path id="178" class="fil169" d="M949 1058l903-183-2-23z"/><path id="179" class="fil170" d="M949 1058l902-201-2-23z"/><path id="180" class="fil171" d="M949 1058l900-219-2-23z"/><path id="181" class="fil172" d="M949 1058l899-238-3-22z"/><path id="182" class="fil173" d="M949 1058l897-256-3-22z"/><path id="183" class="fil174" d="M949 1058l895-274-3-23z"/><path id="184" class="fil175" d="M949 1058l893-292-3-23z"/><path id="185" class="fil176" d="M949 1058l890-310-3-23z"/><path id="186" class="fil177" d="M949 1058l888-328-3-23z"/><path id="187" class="fil178" d="M949 1058l885-346-3-23z"/><path id="188" class="fil179" d="M949 1058l883-364-4-22z"/><path id="189" class="fil180" d="M949 1058l880-382-4-22z"/><path id="190" class="fil181" d="M949 1058l877-400-4-22z"/><path id="191" class="fil182" d="M949 1058l874-418-4-22z"/><path id="192" class="fil183" d="M949 1058l871-435-4-22z"/><path id="193" class="fil184" d="M949 1058l868-453-5-22z"/><path id="194" class="fil185" d="M949 1058l864-470-4-22z"/><path id="195" class="fil186" d="M949 1058l860-488-4-22z"/><path id="196" class="fil187" d="M949 1058l857-505-5-22z"/><path id="197" class="fil188" d="M949 1058l853-523-5-21z"/><path id="198" class="fil189" d="M949 1058l849-540-5-21z"/><path id="199" class="fil190" d="M949 1058l845-557-5-21z"/><path id="200" class="fil191" d="M949 1058l841-574-6-21z"/><path id="201" class="fil192" d="M949 1058l836-591-5-21z"/><path id="202" class="fil193" d="M949 1058l832-608-6-21z"/><path id="203" class="fil194" d="M949 1058l827-625-6-21z"/><path id="204" class="fil195" d="M949 1058l822-642-6-20z"/><path id="205" class="fil196" d="M949 1058l818-658-7-21z"/><path id="206" class="fil197" d="M949 1058l813-675-7-20z"/><path id="207" class="fil198" d="M949 1058l807-691-6-21z"/><path id="208" class="fil199" d="M949 1058l802-707-7-21z"/><path id="209" class="fil200" d="M949 1058l797-724-7-20z"/><path id="210" class="fil201" d="M949 1058l791-740-7-20z"/><path id="211" class="fil202" d="M949 1058l786-756-7-20z"/><path id="212" class="fil203" d="M949 1058l780-772-7-19z"/><path id="213" class="fil204" d="M949 1058l774-787-7-20z"/><path id="214" class="fil205" d="M949 1058l768-803-7-19z"/><path id="215" class="fil206" d="M949 1058l762-819-8-19z"/><path id="216" class="fil207" d="M949 1058l756-834-8-19z"/><path id="217" class="fil208" d="M949 1058l750-849-8-19z"/><path id="218" class="fil209" d="M949 1058l743-864-8-19z"/><path id="219" class="fil210" d="M949 1058l737-879-9-19z"/><path id="220" class="fil211" d="M949 1058l730-894-8-19z"/><path id="221" class="fil212" d="M949 1058l723-909-8-18z"/><path id="222" class="fil213" d="M949 1058l716-924-8-18z"/><path id="223" class="fil214" d="M949 1058l710-938-9-18z"/><path id="224" class="fil215" d="M949 1058l702-952-9-18z"/><path id="225" class="fil216" d="M949 1058l695-966-9-18z"/><path id="226" class="fil217" d="M949 1058l688-981-9-17z"/><path id="227" class="fil218" d="M949 1058l681-994-10-18z"/><path id="228" class="fil219" d="M949 1058L1622 50l-9-17z"/><path id="229" class="fil220" d="M949 1058L1614 36l-9-16z"/><path id="230" class="fil221" d="M949 1058L1607 23l-10-17z"/><path id="231" class="fil222" d="M949 1058L1599 10l-10-17z"/><path id="232" class="fil223" d="M949 1058L1591-3l-10-17z"/><path id="233" class="fil224" d="M949 1058L1583-16l-10-16z"/><path id="234" class="fil225" d="M949 1058L1575-29l-10-16z"/><path id="235" class="fil226" d="M949 1058L1567-42l-11-15z"/><path id="236" class="fil227" d="M949 1058L1559-54l-11-16z"/><path id="237" class="fil228" d="M949 1058L1550-67l-10-15z"/><path id="238" class="fil229" d="M949 1058L1542-79l-11-15z"/><path id="239" class="fil230" d="M949 1058L1533-91l-11-14z"/><path id="240" class="fil231" d="M949 1058l575-1160-10-15z"/><path id="241" class="fil232" d="M949 1058l567-1172-11-14z"/><path id="242" class="fil233" d="M949 1058l558-1183-11-14z"/><path id="243" class="fil234" d="M949 1058l549-1195-11-13z"/><path id="244" class="fil235" d="M949 1058l540-1206-11-13z"/><path id="245" class="fil236" d="M949 1058l531-1216-11-14z"/><path id="246" class="fil237" d="M949 1058l522-1227-12-13z"/><path id="247" class="fil238" d="M949 1058l513-1238-12-12z"/><path id="248" class="fil239" d="M949 1058l503-1248-11-13z"/><path id="249" class="fil240" d="M949 1058l494-1258-12-12z"/><path id="250" class="fil241" d="M949 1058l484-1268-11-12z"/><path id="251" class="fil242" d="M949 1058l475-1278-12-12z"/><path id="252" class="fil243" d="M949 1058l465-1287-12-12z"/><path id="253" class="fil244" d="M949 1058l456-1297-13-11z"/><path id="254" fill="#fefefe" d="M949 1058l446-1306-12-11z"/><path id="255" class="fil244" d="M949 1058l436-1315-12-11z"/><path id="256" class="fil243" d="M949 1058l426-1323-12-11z"/><path id="257" class="fil242" d="M949 1058l416-1332-12-10z"/><path id="258" class="fil241" d="M949 1058l406-1340-12-10z"/><path id="259" class="fil240" d="M949 1058l396-1348-12-10z"/><path id="260" class="fil239" d="M949 1058l386-1356-13-10z"/><path id="261" class="fil238" d="M949 1058l376-1364-13-9z"/><path id="262" class="fil237" d="M949 1058l366-1372-13-9z"/><path id="263" class="fil236" d="M949 1058l355-1379-13-9z"/><path id="264" class="fil235" d="M949 1058l345-1386-13-9z"/><path id="265" class="fil234" d="M949 1058l335-1393-13-8z"/><path id="266" class="fil233" d="M949 1058l324-1400-13-8z"/><path id="267" class="fil232" d="M949 1058l314-1406-14-8z"/><path id="268" class="fil231" d="M949 1058l303-1412-13-8z"/><path id="269" class="fil230" d="M949 1058l293-1418-14-8z"/><path id="270" class="fil229" d="M949 1058l282-1424-13-7z"/><path id="271" class="fil228" d="M949 1058l271-1430-13-7z"/><path id="272" class="fil227" d="M949 1058l260-1435-13-7z"/><path id="273" class="fil226" d="M949 1058l250-1440-14-7z"/><path id="274" class="fil225" d="M949 1058l239-1445-14-6z"/><path id="275" class="fil224" d="M949 1058l228-1450-14-6z"/><path id="276" class="fil223" d="M949 1058l217-1455-13-5z"/><path id="277" class="fil222" d="M949 1058l206-1459-13-5z"/><path id="278" class="fil221" d="M949 1058l195-1463-13-5z"/><path id="279" class="fil220" d="M949 1058l184-1467-13-4z"/><path id="280" class="fil219" d="M949 1058l173-1470-13-5z"/><path id="281" class="fil218" d="M949 1058l162-1474-13-4z"/><path id="282" class="fil217" d="M949 1058l151-1477-14-4z"/><path id="283" class="fil216" d="M949 1058l140-1480-14-3z"/><path id="284" class="fil215" d="M949 1058l129-1483-14-3z"/><path id="285" class="fil214" d="M949 1058l118-1485-14-3z"/><path id="286" class="fil213" d="M949 1058l107-1488-14-2z"/><path id="287" class="fil212" d="M949 1058l96-1490-14-2z"/><path id="288" class="fil211" d="M949 1058l85-1491-14-2z"/><path id="289" class="fil210" d="M949 1058l73-1493-14-2z"/><path id="290" class="fil209" d="M949 1058l62-1494-14-2z"/><path id="291" class="fil208" d="M949 1058l51-1496-14-1z"/><path id="292" class="fil207" d="M949 1058l40-1496-14-1z"/><path id="293" class="fil206" d="M949 1058l29-1497-14-1z"/><path id="294" class="fil205" d="M949 1058l17-1498h-14z"/><path id="295" class="fil204" d="M949 1058l6-1498h-14z"/><path id="296" class="fil203" d="M949 1058l-5-1498h-14z"/><path id="297" class="fil202" d="M949 1058L933-440l-14 1z"/><path id="298" class="fil201" d="M949 1058L922-439l-14 1z"/><path id="299" class="fil200" d="M949 1058L910-439l-14 1z"/><path id="300" class="fil199" d="M949 1058L899-438l-14 2z"/><path id="301" class="fil198" d="M949 1058L888-437l-14 2z"/><path id="302" class="fil197" d="M949 1058L877-435l-14 2z"/><path id="303" class="fil196" d="M949 1058L866-434l-14 3z"/><path id="304" class="fil195" d="M949 1058L854-432l-14 3z"/><path id="305" class="fil194" d="M949 1058L843-430l-14 3z"/><path id="306" class="fil193" d="M949 1058L832-428l-14 3z"/><path id="307" class="fil192" d="M949 1058L821-425l-14 3z"/><path id="308" class="fil191" d="M949 1058L810-422l-14 3z"/><path id="309" class="fil190" d="M949 1058L799-420l-14 4z"/><path id="310" class="fil189" d="M949 1058L788-416l-14 4z"/><path id="311" class="fil188" d="M949 1058L777-413l-14 4z"/><path id="312" class="fil187" d="M949 1058L766-409l-14 4z"/><path id="313" class="fil186" d="M949 1058L755-406l-14 5z"/><path id="314" class="fil185" d="M949 1058L744-402l-14 6z"/><path id="315" class="fil184" d="M949 1058L733-397l-14 5z"/><path id="316" class="fil183" d="M949 1058L722-393l-14 6z"/><path id="317" class="fil182" d="M949 1058L711-388l-13 6z"/><path id="318" class="fil181" d="M949 1058L700-383l-13 6z"/><path id="319" class="fil180" d="M949 1058L690-378l-14 7z"/><path id="320" class="fil179" d="M949 1058L679-373l-13 7z"/><path id="321" class="fil178" d="M949 1058L668-367l-13 7z"/><path id="322" class="fil177" d="M949 1058L658-361l-14 7z"/><path id="323" class="fil176" d="M949 1058L647-355l-13 7z"/><path id="324" class="fil175" d="M949 1058L636-349l-13 8z"/><path id="325" class="fil174" d="M949 1058L626-343l-13 9z"/><path id="326" class="fil173" d="M949 1058L615-336l-13 9z"/><path id="327" class="fil172" d="M949 1058L605-329l-13 9z"/><path id="328" class="fil171" d="M949 1058L595-322l-13 9z"/><path id="329" class="fil170" d="M949 1058L584-315l-12 10z"/><path id="330" class="fil169" d="M949 1058L574-307l-13 9z"/><path id="331" class="fil168" d="M949 1058L564-300l-13 10z"/><path id="332" class="fil167" d="M949 1058L554-292l-13 10z"/><path id="333" class="fil166" d="M949 1058L544-284l-13 11z"/><path id="334" class="fil165" d="M949 1058L534-275l-13 10z"/><path id="335" class="fil164" d="M949 1058L524-267l-13 11z"/><path id="336" class="fil163" d="M949 1058L514-258l-12 11z"/><path id="337" class="fil162" d="M949 1058L504-249l-12 11z"/><path id="338" class="fil161" d="M949 1058L494-240l-12 12z"/><path id="339" class="fil160" d="M949 1058L485-231l-12 12z"/><path id="340" class="fil159" d="M949 1058L475-221l-12 12z"/><path id="341" class="fil158" d="M949 1058L465-212l-11 13z"/><path id="342" class="fil157" d="M949 1058L456-202l-12 13z"/><path id="343" class="fil156" d="M949 1058L447-192l-12 13z"/><path id="344" class="fil155" d="M949 1058L437-181l-11 13z"/><path id="345" class="fil154" d="M949 1058L428-171l-11 13z"/><path id="346" class="fil153" d="M949 1058L419-160l-12 13z"/><path id="347" class="fil152" d="M949 1058L410-149l-12 13z"/><path id="348" class="fil151" d="M949 1058L401-138l-11 14z"/><path id="349" class="fil150" d="M949 1058L392-127l-11 14z"/><path id="350" class="fil149" d="M949 1058L383-116l-11 15z"/><path id="351" class="fil148" d="M949 1058L374-104l-11 14z"/><path id="352" class="fil147" d="M949 1058L366-93l-11 15z"/><path id="353" class="fil146" d="M949 1058L357-81l-11 15z"/><path id="354" class="fil145" d="M949 1058L349-69l-11 16z"/><path id="355" class="fil144" d="M949 1058L340-56l-10 15z"/><path id="356" class="fil143" d="M949 1058L332-44l-10 16z"/><path id="357" class="fil142" d="M949 1058L324-31l-11 16z"/><path id="358" class="fil141" d="M949 1058L316-19 306-2z"/><path id="359" class="fil140" d="M949 1058L308-6l-10 17z"/><path id="360" class="fil139" d="M949 1058L300 7l-10 17z"/><path id="361" class="fil138" d="M949 1058L292 21l-10 16z"/><path id="362" class="fil137" d="M949 1058L284 34l-9 17z"/><path id="363" class="fil136" d="M949 1058L276 48l-9 17z"/><path id="364" class="fil135" d="M949 1058L269 61l-9 18z"/><path id="365" class="fil134" d="M949 1058L262 75l-10 18z"/><path id="366" class="fil133" d="M949 1058L254 89l-9 18z"/><path id="367" class="fil132" d="M949 1058L247 103l-9 18z"/><path id="368" class="fil131" d="M949 1058L240 118l-9 18z"/><path id="369" class="fil130" d="M949 1058L233 132l-9 18z"/><path id="370" class="fil129" d="M949 1058L226 147l-8 18z"/><path id="371" class="fil128" d="M949 1058L219 161l-8 19z"/><path id="372" class="fil127" d="M949 1058L213 176l-9 19z"/><path id="373" class="fil126" d="M949 1058L206 191l-8 19z"/><path id="374" class="fil125" d="M949 1058L200 206l-8 19z"/><path id="375" class="fil124" d="M949 1058L193 222l-7 19z"/><path id="376" class="fil123" d="M949 1058L187 237l-7 19z"/><path id="377" class="fil122" d="M949 1058L181 252l-7 20z"/><path id="378" class="fil121" d="M949 1058L175 268l-7 20z"/><path id="379" class="fil120" d="M949 1058L169 284l-7 20z"/><path id="380" class="fil119" d="M949 1058L163 300l-7 20z"/><path id="381" class="fil118" d="M949 1058L158 316l-7 20z"/><path id="382" class="fil117" d="M949 1058L152 332l-6 20z"/><path id="383" class="fil116" d="M949 1058L147 348l-7 20z"/><path id="384" class="fil115" d="M949 1058L142 364l-7 21z"/><path id="385" class="fil114" d="M949 1058L137 381l-7 20z"/><path id="386" class="fil113" d="M949 1058L132 397l-7 21z"/><path id="387" class="fil112" d="M949 1058L127 414l-6 21z"/><path id="388" class="fil111" d="M949 1058L122 430l-6 21z"/><path id="389" class="fil110" d="M949 1058L117 447l-5 21z"/><path id="390" class="fil110" d="M949 1058L113 464l-6 21z"/><path id="391" class="fil109" d="M949 1058L108 481l-5 21z"/><path id="392" class="fil108" d="M949 1058L104 498l-5 22z"/><path id="393" class="fil107" d="M949 1058L100 515l-5 22z"/><path id="394" class="fil106" d="M949 1058L96 533l-5 21z"/><path id="395" class="fil105" d="M949 1058L92 550l-5 22z"/><path id="396" class="fil105" d="M949 1058L88 567l-4 22z"/><path id="397" class="fil104" d="M949 1058L85 585l-5 22z"/><path id="398" class="fil103" d="M949 1058L81 602l-4 22z"/><path id="399" class="fil102" d="M949 1058L78 620l-4 22z"/><path id="400" class="fil101" d="M949 1058L75 638l-4 22z"/><path id="401" class="fil100" d="M949 1058L72 655l-4 23z"/><path id="402" class="fil99" d="M949 1058L69 673l-4 22z"/><path id="403" class="fil98" d="M949 1058L66 691l-3 22z"/><path id="404" class="fil97" d="M949 1058L63 709l-3 22z"/><path id="405" class="fil96" d="M949 1058L61 727l-3 22z"/><path id="406" class="fil95" d="M949 1058L58 745l-3 22z"/><path id="407" class="fil94" d="M949 1058L56 763l-3 23z"/><path id="408" class="fil93" d="M949 1058L54 781l-3 23z"/><path id="409" class="fil92" d="M949 1058L52 799l-2 23z"/><path id="410" class="fil91" d="M949 1058L50 817l-2 23z"/><path id="411" class="fil90" d="M949 1058L48 836l-2 22z"/><path id="412" class="fil89" d="M949 1058L47 854l-2 23z"/><path id="413" class="fil88" d="M949 1058L45 872l-1 23z"/><path id="414" class="fil88" d="M949 1058L44 890l-2 23z"/><path id="415" class="fil88" d="M949 1058L43 909l-2 23z"/><path id="416" class="fil88" d="M949 1058L42 927l-1 23z"/><path id="417" class="fil87" d="M949 1058L41 946l-1 23z"/><path id="418" class="fil86" d="M949 1058L40 964l-1 23z"/><path id="419" class="fil85" d="M949 1058L39 982v23z"/><path id="420" class="fil84" d="M949 1058l-910-57-1 23z"/><path id="421" class="fil83" d="M949 1058l-911-39v23z"/><path id="422" class="fil82" d="M949 1058l-911-20v23z"/><path id="423" class="fil81" d="M949 1058l-911-2v23z"/><path id="424" class="fil80" d="M949 1058l-911 17 1 23z"/><path id="425" class="fil79" d="M949 1058l-911 35 1 23z"/><path id="426" class="fil78" d="M949 1058l-910 54v23z"/><path id="427" class="fil77" d="M949 1058l-910 72 1 23z"/><path id="428" class="fil76" d="M949 1058l-909 90 1 23z"/><path id="429" class="fil75" d="M949 1058L41 1167l1 23z"/><path id="430" class="fil74" d="M949 1058L42 1185l1 23z"/><path id="431" class="fil73" d="M949 1058L43 1204l1 23z"/><path id="432" class="fil72" d="M949 1058L44 1222l1 23z"/><path id="433" class="fil71" d="M949 1058L45 1240l2 23z"/><path id="434" class="fil70" d="M949 1058L46 1259l2 22z"/><path id="435" class="fil69" d="M949 1058L48 1277l2 23z"/><path id="436" class="fil68" d="M949 1058L50 1295l2 23z"/><path id="437" class="fil67" d="M949 1058L52 1313l2 23z"/><path id="438" class="fil66" d="M949 1058L54 1331l2 23z"/><path id="439" class="fil65" d="M949 1058L56 1350l2 22z"/><path id="440" class="fil64" d="M949 1058L58 1368l3 22z"/><path id="441" class="fil63" d="M949 1058L60 1386l3 22z"/><path id="442" class="fil62" d="M949 1058L63 1404l3 22z"/><path id="443" class="fil61" d="M949 1058L65 1422l4 22z"/><path id="444" class="fil60" d="M949 1058L68 1439l4 23z"/><path id="445" class="fil59" d="M949 1058L71 1457l4 22z"/><path id="446" class="fil58" d="M949 1058L74 1475l4 22z"/><path id="447" class="fil57" d="M949 1058L77 1493l5 22z"/><path id="448" class="fil56" d="M949 1058L81 1510l4 22z"/><path id="449" class="fil55" d="M949 1058L84 1528l5 22z"/><path id="450" class="fil54" d="M949 1058L88 1545l4 22z"/><path id="451" class="fil53" d="M949 1058L92 1563l4 21z"/><path id="452" class="fil52" d="M949 1058L95 1580l5 22z"/><path id="453" class="fil51" d="M949 1058L99 1597l5 22z"/><path id="454" class="fil50" d="M949 1058l-846 557 6 21z"/><path id="455" class="fil49" d="M949 1058l-841 574 5 21z"/><path id="456" class="fil48" d="M949 1058l-837 591 6 21z"/><path id="457" class="fil46" d="M949 1058l-832 608 5 21z"/><path id="458" class="fil47" d="M949 1058l-828 624 6 21z"/><path id="459" class="fil46" d="M949 1058l-823 641 6 21z"/><path id="460" class="fil46" d="M949 1058l-818 658 6 20z"/><path id="461" class="fil45" d="M949 1058l-813 674 6 21z"/><path id="462" class="fil44" d="M949 1058l-808 691 6 20z"/><path id="463" class="fil43" d="M949 1058l-803 707 7 20z"/><path id="464" class="fil42" d="M949 1058l-798 723 7 20z"/><path id="465" class="fil41" d="M949 1058l-792 739 7 20z"/><path id="466" class="fil40" d="M949 1058l-786 755 7 20z"/><path id="467" class="fil39" d="M949 1058l-781 771 8 20z"/><path id="468" class="fil38" d="M949 1058l-775 787 8 19z"/><path id="469" class="fil37" d="M949 1058l-769 803 8 19z"/><path id="470" class="fil36" d="M949 1058l-763 818 8 19z"/><path id="471" class="fil35" d="M949 1058l-757 833 8 20z"/><path id="472" class="fil34" d="M949 1058l-750 849 8 19z"/><path id="473" class="fil33" d="M949 1058l-744 864 8 19z"/><path id="474" class="fil32" d="M949 1058l-737 879 8 18z"/><path id="475" class="fil31" d="M949 1058l-731 894 9 18z"/><path id="476" class="fil30" d="M949 1058l-724 908 8 19z"/><path id="477" class="fil29" d="M949 1058l-717 923 8 18z"/><path id="478" class="fil28" d="M949 1058l-710 937 9 18z"/><path id="479" class="fil27" d="M949 1058l-703 952 9 18z"/><path id="480" class="fil26" d="M949 1058l-696 966 9 18z"/><path id="481" class="fil25" d="M949 1058l-689 980 10 17z"/><path id="482" class="fil25" d="M949 1058l-681 994 9 17z"/><path id="483" class="fil24" d="M949 1058L275 2066l10 17z"/><path id="484" class="fil23" d="M949 1058L283 2079l9 17z"/><path id="485" class="fil22" d="M949 1058L290 2093l10 16z"/><path id="486" class="fil22" d="M949 1058L298 2106l10 16z"/><path id="487" class="fil21" d="M949 1058L306 2119l10 16z"/><path id="488" class="fil20" d="M949 1058L314 2132l10 16z"/><path id="489" class="fil19" d="M949 1058L322 2145l10 15z"/><path id="490" class="fil18" d="M949 1058L330 2157l11 16z"/><path id="491" class="fil17" d="M949 1058L339 2170l10 15z"/><path id="492" class="fil16" d="M949 1058L347 2182l11 15z"/><path id="493" class="fil15" d="M949 1058L356 2194l10 15z"/><path id="494" class="fil14" d="M949 1058L364 2206l11 15z"/><path id="495" class="fil13" d="M949 1058L373 2218l11 14z"/><path id="496" class="fil12" d="M949 1058L382 2229l11 15z"/><path id="497" class="fil11" d="M949 1058L390 2241l11 14z"/><path id="498" class="fil10" d="M949 1058L399 2252l11 14z"/><path id="499" class="fil9" d="M949 1058L408 2263l12 14z"/><path id="500" class="fil8" d="M949 1058L417 2274l12 13z"/><path id="501" class="fil7" d="M949 1058L426 2285l12 13z"/><path id="502" class="fil6" d="M949 1058L436 2295l11 13z"/><path id="503" class="fil5" d="M949 1058L445 2305l12 13z"/><path id="504" class="fil4" d="M949 1058L454 2315l12 13z"/><path id="505" class="fil3" d="M949 1058L464 2325l12 13z"/><path id="506" class="fil2" d="M949 1058L473 2335l12 12z"/><path id="507" class="fil1" d="M949 1058L483 2345l12 11z"/><path id="508" class="fil1" d="M949 1058L493 2354l12 11z"/><path id="509" fill="#6b8181" d="M949 1058L502 2363l10 9z"/></g><path class="fil247" d="M1207 1796c-29 152-228 45-236-79-1-19 44 44 60 57 141 121 164-85 176-4 1 10 1 17 0 26zm-544-92c14 24 13-18 0-3-1 1-1 1 0 3zm328-156c12 11 128-24 149-39 21-14 36 95-120 70-49-7-94-59-33-66 16-1 126-26 125-36-1 0-64 15-72 16-34 7-96 48-90-39 0 0 55 9 62 9 65-2 72-12 120-40 12-7 32 77-15 92-43 14-81 22-126 33zm-340-81c7 14 72 44 7 2l-7-2zm33 244c8 8 8-45-6-35 7 20 4 28 6 35zm43-34c-18-5 0 61 2 9 0-3 0-7-2-9zm-28 0c1 14 1 38 2 41 12-1 7-45-2-41zm148-511c-50-8-17 8 28 6-2-6-17-4-28-6zm-199 510c1-3 8-19-10-12 1 15 27 61 11 17 0-2 0-3-1-5zm146-193c-24-2-33-2-58-4 15 19 59 16 58 4zm337 274c0-4 13-44-5-23-19 23 0 63 5 23zm-40-195c21-4 80-24 10-11-5 1-147 23-48 17 13-1 25-3 38-6zM628 288c-49 20-84 142-4 13 2-4 5-8 4-13zm285 776c-27 13 29 32-1 37-5 1-24-10-18 8 8 23 63-16 31-42-4-3-7-5-12-3zm278-702c6 16 55 104 55 103 7-24-63-149-55-103zm-320 711c37 16-31 47-5 3 2-4 1-4 5-3zm24 9c2-15 0-29-5-8-35-24-50 4-40 35 31 6 41 2 45-27zm137-21c23 27-30 38-12 4 3-5 8-6 12-4zm11-16c-47-33-91 51-24 63 34 6 52-28 24-63zm108-670c109 98 70 248 74 254 10 17 5 24-14 47-129 157-463 175-598 5-57-70-53-109-23-197 80-239 366-246 542-123 7 4 13 9 19 14zm-501-99c-17 20-73 108-81 137-21 73-33 185 8 252 118 190 377 193 557 102 124-63 138-167 103-293-61-219-504-324-643-39-22 44-34 78-14 2 19-74 62-114 72-157l-2-4zm437 166c42 24 61 64 58 113-2 26-35 24-60 73-36 74-114 94-190 77-86-20-71-70-90-142-38-143 12-212 170-178 43 9 74 35 112 57zm-300-39c-10 20 3-4 2 11-4 45-20 44-7 113 11 51 25 69 24 127 0 32 73 70 11 83-34 6-91-11-101-52-20-86-8-175 45-246 8-12 16-56 26-36zm-26-17c24-13 39 15-16 17 2-9 8-13 16-17zm218-27c69 14 178 70 176 147-23-29 21-29-67-81-67-40-76-54-146-60-2 0-39-12-9-7 0 0 17-3 21-3 11 1 15 2 25 4zm-79-31c-189 6-301 90-284 294 3 36-24-17-38-19 17 27 94 100 108 109 127 86 336 80 458-10 73-53 24-215 24-217 38 68 31 152 34 159 24 53 53-318-302-316zm249 1460c-61 47-154-71-150-73 0 0 70 4 89 0 27-5 88-11 83 36-2 15-12 26-22 37zm29-88c19 58-60-22-18-20 9 0 15 13 18 20zm-583 74c-54-56 0-135 9-106 13 45 10 103 86 83 86-21 149-177 122-75-29 109-118 174-217 98zm123-50c-79 45-86-18-110-79-2-7-6-41 20-11 48 56 222 1 103 81l-13 9zm391-135c24-5 62-22 49 25-4 16-36 30-44 41 10 7 71-61 41-1-34 70-216 63-183-25 11-27-25-21 33-13 29 4 125-8 38-6-4 1-85-3-63-17 1-1 95 2 125-3l4-1zm-443-24s-46-26-35-62c1-4 59 23 85 26 4 0 115-5 85 13-3 2-95 24-30 15 36-5 37-11 46 19 26 94-181 88-186 29 17-7-18-55 2-55 5 0 22 12 33 15zm-17-216c40 22 28 25 83 42 33 10 62 14 96 21 9 24 7 87-30 97-45 12-155 11-162-52-5-51-3-14 70 6 2 0 41 17 17 0-36-26-110 4-79-108l3-6h2zm43-181c8-7 15 22 25 36 40 59 149 111 121 170-23 46-183-26-186-51-3-23 29-137 40-155zm250 223c-3-76-11-41 51-81 16-11 117-77 123-42 6 40-3 34 12 82 23 69-32 86-91 96-56 9-90 5-95-55zm355-172c25-34 4 87 3 87-11 16-24-30-25 20-2 75-27 12-32 10-19 16-19 57-35-3-14-51-8 48-29 29-34-30-15-114-37-30-31 7-9-105 5-107 10-2 114 33 150-6zm-79 7c-50-1-91-24-13-19 10 1 127 0 50 17-13 3-23 3-37 2zm-120-35c35-22 14 40 12 42-9 9-92 37-135 73-22 18-114 13-141-9-73-57-70-41-122-118-11-17 52 21 63 25 93 37 235 40 323-13zm-106-44c41 14 124-47 127-31 8 57-28 68-78 82-106 32-229 25-323-39-19-13-49-59-3-42 73 27 167 30 243 24 13-1 23 2 34 6zm38-120c57 5 52 80 34 89-20 10-111 36-108-3 4-58 2-88 74-86zm-214-2c5 0 188 2 156 11-23 7-179-1-182 0 4 17 12-15 13 43 0 47 34 37 37 19 2-18-4-19 6-28 9-8-32-21-15 14 8 15-15 39-15-27 0-17 68 1 100-8 40-12 28 75 23 77-12 7-254 8-244-54 8-47 82-47 121-47zm-145-44c35 68 4 136-4 26 0-8-1-20 4-26zm288-47c13-1 43-4 31 20-6 10-81 11-60-15 5-6 21-5 29-5zm-200-28c28 7 150 24 155 26-9 17-165 5-191-33-6-9 34 6 36 7zm-306-36c14 32-25 145-56 108-11-13 43-110 47-112s7 1 9 4zm735-1c17 37 43 67 64 116 24 56 19 57-59 77-116 29 25 8 75-19 9-5 20 37 5 48s-50 35-8 15c22-10 18-44 33 33 17 88 8 59-92 56-58-1-50-1-55-71-3-36 22-8 81-32 31-12 68-42 22-17-32 18-92 33-119 1-95-111 1-118 37-186-33 18-112 103-86 143 22 35 59 63 5 74-23 4 34-92-61-92-45 0-105 28-103-21 1-28 5-32 43-22 23 5 25 51 34-6 10-59-18-29 67-55 56-17 62-25 107-44 6-2 8-2 10 2zm-674-2c51-8 46 158 51 108 4-38-33-145 3-103 11 13 63 143 28 34-13-43-43-56 20-67 42-8 85 101 216 109 75 5 89-12 84 64-62 6-151-4-204 14-27 10-25-25-37-55-15-41-13-44-21-16-12 51-222 87-202 10 10-43 13-34 17-81 3-34 26-18 37 16 0 1 24 124 25 77 1-23-21-105-21-105 0-4 1-4 4-5zm-182-20c-51 31-5-35 2-5l-2 5zm881-41c3 50-173 96-202 100-114 18-296 1-378-92-10-10 62 34 75 40 148 64 365 49 495-48 3-2 9-6 10 0zm-934 19c52-42 106-11 95-83-12-76 102 105 18 191-36 38-40-5-27-41 28-83-88-89-66-38 9 20 93 16 35 40-6 3 31 13 2 32-24 16-92-49-63-92l6-9zm1037-293c31 3 25 29 24 59-2 100-30 217-108 288-23 21-31-21-26-28 25-36 22-57 47-102 62-113 37-182 50-210 3-7 6-7 13-7zM628 215c135-176 512-144 608 81 77 180 90 453-125 540-200 80-506 42-574-194-42-147-18-287 76-407 5-7 10-13 15-20zM499 439c10 110-12 166 49 281 7 13 84 123 19 109-80-18-156-299-95-396 9-14 22-14 27 6zm741-190c98 74 124 289 75 265-8-5-35-140-43-163-3-11-36-95-37-103l5 1zm-662-40c100-90-8 65-18 83-9 14-51 115-62 114-51-2 40-154 58-175 7-8 14-15 22-22zm0-22c-89 74-110 188-139 295-49 184 96 345 97 355 0 3-89 24-94 2-8-33-17-120-70-125-40-5 9 58-34 66-52 9-107 24-83 97 22 62 84 69 127 108 47 42 135 51 195 34 99-27 59-11 98 83 15 36-37 178-45 238-7 56-10 232-27 269-32 66-87 132-7 189 69 49 158 17 203-47 73-104 13-164 39-264 1-3 30-147 31-148 11-13 48-13 55 31 12 70 11 124 28 199 24 107-38 187 89 293 76 63 242 17 156-165-29-60-36-233-40-303-2-49 12 7 60-9 42-14 53 40 79-41 8-23 32 12 26-66-4-59 7-74-8-149-16-83-35-145-81-217-3-5 45-59 54-71 70-111 81-257 68-387-7-76-43-197-125-225-29-10-84-121-277-141-117-11-181 0-283 59-30 18-48 6-92 40z"/><path class="fil247" d="M1207 1796c-29 152-228 45-236-79-1-19 44 44 60 57 141 121 164-85 176-4 1 10 1 17 0 26zm-544-92c14 24 13-18 0-3-1 1-1 1 0 3zm328-156c12 11 128-24 149-39 21-14 36 95-120 70-49-7-94-59-33-66 16-1 126-26 125-36-1 0-64 15-72 16-34 7-96 48-90-39 0 0 55 9 62 9 65-2 72-12 120-40 12-7 32 77-15 92-43 14-81 22-126 33zm-340-81c7 14 72 44 7 2l-7-2zm33 244c8 8 8-45-6-35 7 20 4 28 6 35zm43-34c-18-5 0 61 2 9 0-3 0-7-2-9zm-28 0c1 14 1 38 2 41 12-1 7-45-2-41zm148-511c-50-8-17 8 28 6-2-6-17-4-28-6zm-199 510c1-3 8-19-10-12 1 15 27 61 11 17 0-2 0-3-1-5zm146-193c-24-2-33-2-58-4 15 19 59 16 58 4zm337 274c0-4 13-44-5-23-19 23 0 63 5 23zm-40-195c21-4 80-24 10-11-5 1-147 23-48 17 13-1 25-3 38-6zM628 288c-49 20-84 142-4 13 2-4 5-8 4-13zm285 776c-27 13 29 32-1 37-5 1-24-10-18 8 8 23 63-16 31-42-4-3-7-5-12-3zm278-702c6 16 55 104 55 103 7-24-63-149-55-103zm-320 711c37 16-31 47-5 3 2-4 1-4 5-3zm24 9c2-15 0-29-5-8-35-24-50 4-40 35 31 6 41 2 45-27zm137-21c23 27-30 38-12 4 3-5 8-6 12-4zm11-16c-47-33-91 51-24 63 34 6 52-28 24-63zm108-670c109 98 70 248 74 254 10 17 5 24-14 47-129 157-463 175-598 5-57-70-53-109-23-197 80-239 366-246 542-123 7 4 13 9 19 14zm-501-99c-17 20-73 108-81 137-21 73-33 185 8 252 118 190 377 193 557 102 124-63 138-167 103-293-61-219-504-324-643-39-22 44-34 78-14 2 19-74 62-114 72-157l-2-4zm437 166c42 24 61 64 58 113-2 26-35 24-60 73-36 74-114 94-190 77-86-20-71-70-90-142-38-143 12-212 170-178 43 9 74 35 112 57zm-300-39c-10 20 3-4 2 11-4 45-20 44-7 113 11 51 25 69 24 127 0 32 73 70 11 83-34 6-91-11-101-52-20-86-8-175 45-246 8-12 16-56 26-36zm-26-17c24-13 39 15-16 17 2-9 8-13 16-17zm218-27c69 14 178 70 176 147-23-29 21-29-67-81-67-40-76-54-146-60-2 0-39-12-9-7 0 0 17-3 21-3 11 1 15 2 25 4zm-79-31c-189 6-301 90-284 294 3 36-24-17-38-19 17 27 94 100 108 109 127 86 336 80 458-10 73-53 24-215 24-217 38 68 31 152 34 159 24 53 53-318-302-316zm249 1460c-61 47-154-71-150-73 0 0 70 4 89 0 27-5 88-11 83 36-2 15-12 26-22 37zm29-88c19 58-60-22-18-20 9 0 15 13 18 20zm-583 74c-54-56 0-135 9-106 13 45 10 103 86 83 86-21 149-177 122-75-29 109-118 174-217 98zm123-50c-79 45-86-18-110-79-2-7-6-41 20-11 48 56 222 1 103 81l-13 9zm391-135c24-5 62-22 49 25-4 16-36 30-44 41 10 7 71-61 41-1-34 70-216 63-183-25 11-27-25-21 33-13 29 4 125-8 38-6-4 1-85-3-63-17 1-1 95 2 125-3l4-1zm-443-24s-46-26-35-62c1-4 59 23 85 26 4 0 115-5 85 13-3 2-95 24-30 15 36-5 37-11 46 19 26 94-181 88-186 29 17-7-18-55 2-55 5 0 22 12 33 15zm-17-216c40 22 28 25 83 42 33 10 62 14 96 21 9 24 7 87-30 97-45 12-155 11-162-52-5-51-3-14 70 6 2 0 41 17 17 0-36-26-110 4-79-108l3-6h2zm43-181c8-7 15 22 25 36 40 59 149 111 121 170-23 46-183-26-186-51-3-23 29-137 40-155zm250 223c-3-76-11-41 51-81 16-11 117-77 123-42 6 40-3 34 12 82 23 69-32 86-91 96-56 9-90 5-95-55zm355-172c25-34 4 87 3 87-11 16-24-30-25 20-2 75-27 12-32 10-19 16-19 57-35-3-14-51-8 48-29 29-34-30-15-114-37-30-31 7-9-105 5-107 10-2 114 33 150-6zm-79 7c-50-1-91-24-13-19 10 1 127 0 50 17-13 3-23 3-37 2zm-120-35c35-22 14 40 12 42-9 9-92 37-135 73-22 18-114 13-141-9-73-57-70-41-122-118-11-17 52 21 63 25 93 37 235 40 323-13zm-106-44c41 14 124-47 127-31 8 57-28 68-78 82-106 32-229 25-323-39-19-13-49-59-3-42 73 27 167 30 243 24 13-1 23 2 34 6zm38-120c57 5 52 80 34 89-20 10-111 36-108-3 4-58 2-88 74-86zm-214-2c5 0 188 2 156 11-23 7-179-1-182 0 4 17 12-15 13 43 0 47 34 37 37 19 2-18-4-19 6-28 9-8-32-21-15 14 8 15-15 39-15-27 0-17 68 1 100-8 40-12 28 75 23 77-12 7-254 8-244-54 8-47 82-47 121-47zm-145-44c35 68 4 136-4 26 0-8-1-20 4-26zm288-47c13-1 43-4 31 20-6 10-81 11-60-15 5-6 21-5 29-5zm-200-28c28 7 150 24 155 26-9 17-165 5-191-33-6-9 34 6 36 7zm-306-36c14 32-25 145-56 108-11-13 43-110 47-112s7 1 9 4zm735-1c17 37 43 67 64 116 24 56 19 57-59 77-116 29 25 8 75-19 9-5 20 37 5 48s-50 35-8 15c22-10 18-44 33 33 17 88 8 59-92 56-58-1-50-1-55-71-3-36 22-8 81-32 31-12 68-42 22-17-32 18-92 33-119 1-95-111 1-118 37-186-33 18-112 103-86 143 22 35 59 63 5 74-23 4 34-92-61-92-45 0-105 28-103-21 1-28 5-32 43-22 23 5 25 51 34-6 10-59-18-29 67-55 56-17 62-25 107-44 6-2 8-2 10 2zm-674-2c51-8 46 158 51 108 4-38-33-145 3-103 11 13 63 143 28 34-13-43-43-56 20-67 42-8 85 101 216 109 75 5 89-12 84 64-62 6-151-4-204 14-27 10-25-25-37-55-15-41-13-44-21-16-12 51-222 87-202 10 10-43 13-34 17-81 3-34 26-18 37 16 0 1 24 124 25 77 1-23-21-105-21-105 0-4 1-4 4-5zm-182-20c-51 31-5-35 2-5l-2 5zm881-41c3 50-173 96-202 100-114 18-296 1-378-92-10-10 62 34 75 40 148 64 365 49 495-48 3-2 9-6 10 0zm-934 19c52-42 106-11 95-83-12-76 102 105 18 191-36 38-40-5-27-41 28-83-88-89-66-38 9 20 93 16 35 40-6 3 31 13 2 32-24 16-92-49-63-92l6-9zm1037-293c31 3 25 29 24 59-2 100-30 217-108 288-23 21-31-21-26-28 25-36 22-57 47-102 62-113 37-182 50-210 3-7 6-7 13-7zM628 215c135-176 512-144 608 81 77 180 90 453-125 540-200 80-506 42-574-194-42-147-18-287 76-407 5-7 10-13 15-20zM499 439c10 110-12 166 49 281 7 13 84 123 19 109-80-18-156-299-95-396 9-14 22-14 27 6zm741-190c98 74 124 289 75 265-8-5-35-140-43-163-3-11-36-95-37-103l5 1zm-662-40c100-90-8 65-18 83-9 14-51 115-62 114-51-2 40-154 58-175 7-8 14-15 22-22zm0-22c-89 74-110 188-139 295-49 184 96 345 97 355 0 3-89 24-94 2-8-33-17-120-70-125-40-5 9 58-34 66-52 9-107 24-83 97 22 62 84 69 127 108 47 42 135 51 195 34 99-27 59-11 98 83 15 36-37 178-45 238-7 56-10 232-27 269-32 66-87 132-7 189 69 49 158 17 203-47 73-104 13-164 39-264 1-3 30-147 31-148 11-13 48-13 55 31 12 70 11 124 28 199 24 107-38 187 89 293 76 63 242 17 156-165-29-60-36-233-40-303-2-49 12 7 60-9 42-14 53 40 79-41 8-23 32 12 26-66-4-59 7-74-8-149-16-83-35-145-81-217-3-5 45-59 54-71 70-111 81-257 68-387-7-76-43-197-125-225-29-10-84-121-277-141-117-11-181 0-283 59-30 18-48 6-92 40z"/><path d="M1151 375c109 98 70 248 74 254 10 17 5 24-14 47-129 157-463 175-598 5-57-70-53-109-23-197 80-239 366-246 542-123 7 4 13 9 19 14z" fill="#d9dada"/><path d="M900 328c-189 6-301 90-284 294 3 36-24-17-38-19 17 27 94 100 108 109 127 86 336 80 458-10 73-53 24-215 24-217 38 68 31 152 34 159 24 53 53-318-302-316z" fill="url(#id2)"/><path d="M1024 737c-69 0-125-89-125-198 1-54 18-135 62-170 49-32 84 2 124 32 45 32 59 28 73 87 8 31-1 72 1 108 1 41 5 64-31 95-7 6-15 11-23 16-23 14-54 29-81 30z" fill="#c5c6c6" fill-opacity=".502"/><path d="M896 382c15-9 31-11 49-7-41 6-48 37-61 71s-28 72-20 109c7 30 14 46 18 78 7 58 28 61 72 95 7 5 14 11 22 18s6 5-5 2c-31-11-100-39-110-73-7-25 2-45-11-81-23-66-29-62-6-132 10-31 24-62 52-80z" fill="#c5c6c6" fill-opacity=".659"/></g></svg>