<svg xmlns="http://www.w3.org/2000/svg" width="5000" height="5000" viewBox="0 0 1322.917 1322.917"><path d="M660.588 164.855a495.95 496.603 0 00-35.082 1.244 495.95 496.603 0 00-97.584 16.853 495.95 496.603 0 00-47.045 15.652 495.95 496.603 0 00-294.088 316.098 495.95 496.603 0 00-12.265 48.096 495.95 496.603 0 00-7.408 49.082 495.95 496.603 0 00-2.478 49.578 495.95 496.603 0 0053.956 225.257 495.95 496.603 0 0053.503 83.436 495.95 496.603 0 0032.719 37.292 495.95 496.603 0 0036.272 33.837 495.95 496.603 0 00172.937 94.6 495.95 496.603 0 0097.05 19.699 495.95 496.603 0 0049.513 2.481 495.95 496.603 0 00486.064-397.944 495.95 496.603 0 007.408-49.081 495.95 496.603 0 002.478-49.578 495.95 496.603 0 00-18.073-132.841 495.95 496.603 0 00-15.632-47.107 495.95 496.603 0 00-20.25-45.31 495.95 496.603 0 00-24.667-43.058 495.95 496.603 0 00-28.837-40.376 495.95 496.603 0 00-32.718-37.293 495.95 496.603 0 00-36.273-33.837 495.95 496.603 0 00-39.465-30.041 495.95 496.603 0 00-86.903-47.538 495.95 496.603 0 00-46.569-17.02 495.95 496.603 0 00-97.05-19.7 495.95 496.603 0 00-49.513-2.48z" fill="#13263c" paint-order="markers stroke fill"/><path d="M986.418 813.805c-33.482.005-63.696 20.09-76.659 50.96a51.082 51.082 0 00-13.143-1.782c-23.413.03-43.808 15.972-49.49 38.685a66.066 66.066 0 00-3.964-.198c-36.478 0-66.05 29.571-66.05 66.05 0 36.477 29.572 66.049 66.05 66.049 36.478 0 66.05-29.571 66.05-66.05a66.137 66.137 0 00-.14-3.961 51.082 51.082 0 0017.896-8.476 83.155 83.155 0 0059.45 25.033 83.156 83.156 0 0073.023-43.386 67.83 67.83 0 008.248 8.32c24.605-35.367 44.559-73.746 59.075-114.118-5.149-1.288-11.025-2.135-16.333-2.158a66.05 66.05 0 00-52.447 26.037 83.155 83.155 0 00-71.566-41.005zm-388.004 12.912c0 68.3 6.058 125.673-64.51 187.667l127.554 57.179 127.555-57.18c-70.569-61.993-64.51-119.367-64.51-187.666h-63.045z" fill="#ff7402" paint-order="markers stroke fill"/><path d="M316.51 693.265l-13.096-48.61-48.61-13.096 48.61-13.097 13.096-48.61 13.096 48.61 48.61 13.097-48.61 13.096zM1019.9 585.472l-10.483-38.913-38.913-10.484 38.913-10.483 10.483-38.913 10.484 38.913 38.913 10.483-38.913 10.484zM929.883 730.222l-6.853-25.438-25.438-6.854 25.438-6.853 6.853-25.438 6.853 25.438 25.438 6.853-25.438 6.854z" fill="#fff" paint-order="markers stroke fill"/><path d="M236.704 759.43c-21.092.037-41.857 8.126-57.235 22.561 12.615 50.77 33.345 99.773 61.358 143.535a83.155 83.155 0 0055.281-24.868c12.466 31.886 43.201 52.873 77.438 52.877a83.155 83.155 0 0017.968-2.071c4.203 31.75 31.256 55.486 63.282 55.524a63.912 63.912 0 0020.122-3.335c3.449 19.25 20.19 33.264 39.746 33.27a40.412 40.412 0 005.164-.382c3.719 18.93 20.305 32.588 39.597 32.606a40.392 40.392 0 0036.871-23.977l49.265 34.31a83.149 83.149 0 00-.236 4.715 83.155 83.155 0 0043.283 72.873 495.351 495.351 0 00100.633-16.202 83.155 83.155 0 0022.394-56.67l-.02-.555a48.944 48.944 0 0026.443-11.26 63.911 63.911 0 0046.507 20.134c35.297 0 63.912-28.614 63.912-63.912a63.915 63.915 0 00-2.586-17.867 53.22 53.22 0 008.003-3.287c4.872 13.551 13.253 26.117 24.184 35.493 42.97-35.709 79.635-78.763 108.2-126.665-14.987-12.712-34.527-19.973-54.18-20.006a83.155 83.155 0 00-62.794 28.72 53.22 53.22 0 00-39.837-18.03c-29.393 0-53.221 23.828-53.221 53.221a53.26 53.26 0 00.295 5.096 63.911 63.911 0 00-45.023 27.725 48.944 48.944 0 00-24.996-6.93 48.944 48.944 0 00-41.703 23.443 83.155 83.155 0 00-35.055-8.411c-31.076-56.705-26.36-107.953-26.36-169.99h-83.89c0 63.154 4.886 115.126-28.075 173.056a40.392 40.392 0 00-32.014-15.808 40.412 40.412 0 00-5.164.382c-3.545-17.943-18.705-31.265-36.955-32.474a63.911 63.911 0 001.401-13.194c-.03-34.728-27.786-63.078-62.505-63.841.323-2.941.49-5.897.499-8.856 0-45.925-37.23-83.155-83.155-83.155a83.155 83.155 0 00-59.404 25.08c-12.466-31.886-43.201-52.873-77.438-52.876z" fill="#ffa005" paint-order="markers stroke fill"/><path d="M329.234 869.423a83.155 83.155 0 00-61.204 27.013 40.392 40.392 0 00-26.46-9.907c-7.025.01-14.158 2.009-20.253 5.501 85.552 163.55 254.887 265.922 439.271 266.032 128.196-.042 251.46-49.672 343.825-138.688-10.233-19.782-30.703-32.33-52.975-32.352-27.092.034-50.756 18.325-57.616 44.534a40.392 40.392 0 00-17.22-3.91 40.392 40.392 0 00-36.103 22.385 40.392 40.392 0 00-8.798-1.003 40.392 40.392 0 00-29.45 12.82 59.635 59.635 0 00-36.833-12.82 59.635 59.635 0 00-39.275 14.86 83.155 83.155 0 00-65.495-31.964 83.155 83.155 0 00-47.818 15.248 40.392 40.392 0 00-37.708-25.94 40.391 40.391 0 00-27.765 11.087 59.635 59.635 0 00-49.209-26.053 59.633 59.633 0 00-14.486 1.844 59.636 59.636 0 001.424-12.769c0-32.935-26.7-59.635-59.635-59.635a59.636 59.636 0 00-14.474 1.841c-7.25-39.451-41.63-68.103-81.743-68.124z" fill="#ffca05" paint-order="markers stroke fill"/><g transform="matrix(1.68398 0 0 1.68398 2034.322 1242.699)"><path d="M-815.031-515.611a17.43 17.43 0 00-14.998 8.193l-117.887 188.754a17.43 17.43 0 00-2.646 9.232v128.924a17.43 17.43 0 0032.507 8.738l102.809-177.414L-712.44-171.77a17.43 17.43 0 0032.505-8.738v-128.924a17.43 17.43 0 00-2.646-9.232l-117.885-188.754a17.43 17.43 0 00-14.566-8.193z" style="line-height:normal;font-variant-ligatures:normal;font-variant-position:normal;font-variant-caps:normal;font-variant-numeric:normal;font-variant-alternates:normal;font-feature-settings:normal;text-indent:0;text-align:start;text-decoration-line:none;text-decoration-style:solid;text-decoration-color:#000;text-transform:none;text-orientation:mixed;white-space:normal;shape-padding:0;isolation:auto;mix-blend-mode:normal;solid-color:#000;solid-opacity:1" color="#000" font-weight="400" font-family="sans-serif" overflow="visible" fill="#fa2e24"/><path d="M-815.247-682.785S-916.12-619.947-916.12-460.37c0 52.61 18.805 124.192 46.232 226.55 25.24 14.572 84.041 14.572 109.282 0 33.846-102.358 46.231-173.94 46.231-226.55 0-159.577-100.872-222.415-100.872-222.415z" fill="#fff"/><circle r="42.995" cy="-509.152" cx="-815.247" fill="#127486"/><path d="M-754.87-251.524c-28.15 13.738-90.557 13.918-119.61.542 1.504 5.632 3.03 11.332 4.592 17.162 25.24 14.572 84.041 14.572 109.282 0a1553.883 1553.883 0 005.736-17.704z" fill="#474747"/><path d="M-815.473-356.588a15.002 15.002 0 00-14.775 15.211v138.563a15.002 15.002 0 1030 0v-138.563a15.002 15.002 0 00-15.225-15.21z" style="line-height:normal;font-variant-ligatures:normal;font-variant-position:normal;font-variant-caps:normal;font-variant-numeric:normal;font-variant-alternates:normal;font-feature-settings:normal;text-indent:0;text-align:start;text-decoration-line:none;text-decoration-style:solid;text-decoration-color:#000;text-transform:none;text-orientation:mixed;white-space:normal;shape-padding:0;isolation:auto;mix-blend-mode:normal;solid-color:#000;solid-opacity:1" color="#000" font-weight="400" font-family="sans-serif" overflow="visible" fill="#fa2e24"/><circle cx="-810.998" cy="-504.44" r="36.856" fill="#1db7d3"/><path d="M-815.248-559.646c-27.799 0-50.494 22.695-50.494 50.494 0 27.798 22.695 50.494 50.494 50.494s50.496-22.696 50.496-50.494c0-27.799-22.697-50.494-50.496-50.494zm0 15a35.382 35.382 0 0135.496 35.494 35.382 35.382 0 01-35.496 35.494 35.38 35.38 0 01-35.494-35.494 35.38 35.38 0 0135.494-35.494z" style="line-height:normal;font-variant-ligatures:normal;font-variant-position:normal;font-variant-caps:normal;font-variant-numeric:normal;font-variant-alternates:normal;font-feature-settings:normal;text-indent:0;text-align:start;text-decoration-line:none;text-decoration-style:solid;text-decoration-color:#000;text-transform:none;text-orientation:mixed;white-space:normal;shape-padding:0;isolation:auto;mix-blend-mode:normal;solid-color:#000;solid-opacity:1" color="#000" font-weight="400" font-family="sans-serif" overflow="visible" fill="#22303b"/><path d="M-815.247-682.785s-26.918 16.77-52.944 54.98a125.08 60.771 0 0052.944 5.791 125.08 60.771 0 0052.946-5.787c-26.027-38.213-52.946-54.984-52.946-54.984z" fill="#fa2e24"/><path d="M-815.247-682.785V-187.62a15.001 15.001 0 0015-15.194v-20.708c15.604-1.328 30.047-4.76 39.64-10.298 33.847-102.358 46.232-173.94 46.232-226.55 0-159.577-100.872-222.415-100.872-222.415z" opacity=".15"/></g></svg>