<svg xmlns="http://www.w3.org/2000/svg" width="5000" height="5000" viewBox="0 0 1322.917 1322.917"><path style="opacity:1;fill:#13263c;fill-opacity:1;fill-rule:nonzero;stroke:none;stroke-width:85.12673187;stroke-linecap:round;stroke-linejoin:round;stroke-miterlimit:4;stroke-dasharray:none;stroke-dashoffset:8.12598419;stroke-opacity:1;paint-order:markers stroke fill" d="M2496.71 623.074a1874.457 1876.926 0 0 0-132.593 4.701 1874.457 1876.926 0 0 0-368.82 63.698 1874.457 1876.926 0 0 0-177.81 59.158 1874.457 1876.926 0 0 0-1111.512 1194.7 1874.457 1876.926 0 0 0-46.356 181.78 1874.457 1876.926 0 0 0-28 185.506 1874.457 1876.926 0 0 0-9.365 187.381 1874.457 1876.926 0 0 0 203.928 851.365 1874.457 1876.926 0 0 0 202.216 315.348 1874.457 1876.926 0 0 0 123.66 140.949 1874.457 1876.926 0 0 0 137.094 127.887 1874.457 1876.926 0 0 0 653.62 357.543 1874.457 1876.926 0 0 0 366.806 74.453 1874.457 1876.926 0 0 0 187.133 9.377 1874.457 1876.926 0 0 0 1837.092-1504.04 1874.457 1876.926 0 0 0 28-185.505 1874.457 1876.926 0 0 0 9.365-187.381 1874.457 1876.926 0 0 0-68.309-502.076 1874.457 1876.926 0 0 0-59.082-178.043 1874.457 1876.926 0 0 0-76.537-171.248 1874.457 1876.926 0 0 0-93.228-162.74 1874.457 1876.926 0 0 0-108.989-152.604 1874.457 1876.926 0 0 0-123.66-140.949 1874.457 1876.926 0 0 0-137.093-127.887 1874.457 1876.926 0 0 0-149.16-113.54 1874.457 1876.926 0 0 0-328.452-179.67 1874.457 1876.926 0 0 0-176.008-64.333 1874.457 1876.926 0 0 0-366.806-74.453 1874.457 1876.926 0 0 0-187.133-9.377Z" transform="scale(.26458)"/><path style="opacity:1;fill:#ff7402;fill-opacity:1;fill-rule:nonzero;stroke:none;stroke-width:77.74911499;stroke-linecap:round;stroke-linejoin:round;stroke-miterlimit:4;stroke-dasharray:none;stroke-dashoffset:8.12598419;stroke-opacity:1;paint-order:markers stroke fill" d="M3728.195 3075.799c-126.547.017-240.74 75.929-289.734 192.607a193.066 193.066 0 0 0-49.676-6.738c-88.488.113-165.573 60.368-187.049 146.21a249.7 249.7 0 0 0-14.982-.75c-137.87.002-249.635 111.768-249.635 249.638s111.765 249.636 249.635 249.636 249.637-111.766 249.637-249.636a249.965 249.965 0 0 0-.53-14.973 193.067 193.067 0 0 0 67.639-32.035 314.286 314.286 0 0 0 224.695 94.613c115.08-.01 220.953-62.911 275.99-163.976 9.318 11.228 20.042 22.009 31.174 31.44 92.997-133.668 168.413-278.722 223.277-431.307-19.46-4.87-41.67-8.07-61.73-8.159-77.8.122-151.094 36.51-198.224 98.408-56.384-95.886-159.252-154.825-270.487-154.978zm-1466.472 48.803c0 258.137 22.897 474.982-243.819 709.289L2500 4050.002l482.096-216.111c-266.716-234.307-243.819-451.152-243.819-709.29H2500Z" transform="scale(.26458)"/><path style="opacity:1;fill:#fff;fill-opacity:1;fill-rule:nonzero;stroke:none;stroke-width:13.07784939;stroke-linecap:round;stroke-linejoin:round;stroke-miterlimit:4;stroke-dasharray:none;stroke-dashoffset:8.12598419;stroke-opacity:1;paint-order:markers stroke fill" d="m316.51-332.652-13.096-48.61-48.61-13.096 48.61-13.096 13.096-48.61 13.096 48.61 48.61 13.096-48.61 13.096z" transform="translate(0 1025.917)"/><path d="m1019.9-440.445-10.483-38.913-38.913-10.484 38.913-10.483 10.483-38.913 10.484 38.913 38.913 10.483-38.913 10.484z" style="opacity:1;fill:#fff;fill-opacity:1;fill-rule:nonzero;stroke:none;stroke-width:10.4688921;stroke-linecap:round;stroke-linejoin:round;stroke-miterlimit:4;stroke-dasharray:none;stroke-dashoffset:8.12598419;stroke-opacity:1;paint-order:markers stroke fill" transform="translate(0 1025.917)"/><path style="opacity:1;fill:#fff;fill-opacity:1;fill-rule:nonzero;stroke:none;stroke-width:6.84367847;stroke-linecap:round;stroke-linejoin:round;stroke-miterlimit:4;stroke-dasharray:none;stroke-dashoffset:8.12598419;stroke-opacity:1;paint-order:markers stroke fill" d="m929.883-295.695-6.853-25.438-25.438-6.853 25.438-6.854 6.853-25.438 6.853 25.438 25.438 6.854-25.438 6.853z" transform="translate(0 1025.917)"/><path style="opacity:1;fill:#ffa005;fill-opacity:1;fill-rule:nonzero;stroke:none;stroke-width:113.38582611;stroke-linecap:round;stroke-linejoin:round;stroke-miterlimit:4;stroke-dasharray:none;stroke-dashoffset:8.12598419;stroke-opacity:1;paint-order:markers stroke fill" d="M894.629 2870.283c-79.718.145-158.198 30.716-216.32 85.275 47.678 191.885 126.029 377.093 231.904 542.495a314.286 314.286 0 0 0 208.935-93.992c47.116 120.515 163.281 199.836 292.68 199.85a314.286 314.286 0 0 0 67.91-7.827c15.885 119.997 118.132 209.71 239.176 209.856a241.557 241.557 0 0 0 76.053-12.604c13.033 72.752 76.31 125.719 150.22 125.742 6.53-.063 13.048-.544 19.516-1.441 14.056 71.546 76.744 123.165 149.658 123.232 60.268-.05 114.865-35.553 139.358-90.619l186.197 129.674a314.263 314.263 0 0 0-.893 17.822c.137 114.795 62.85 220.383 163.588 275.426a1872.194 1872.194 0 0 0 380.348-61.236 314.285 314.285 0 0 0 84.637-214.19c-.022-.698-.047-1.396-.074-2.094a184.985 184.985 0 0 0 99.943-42.56 241.555 241.555 0 0 0 175.773 76.098c133.407 0 241.555-108.148 241.555-241.555a241.57 241.57 0 0 0-9.771-67.53 201.147 201.147 0 0 0 30.246-12.425c18.415 51.219 50.092 98.71 91.405 134.148 162.405-134.962 300.981-297.688 408.947-478.735-56.648-48.043-130.5-75.488-204.776-75.612a314.286 314.286 0 0 0-237.334 108.55 201.149 201.149 0 0 0-150.565-68.144c-111.091 0-201.15 90.056-201.15 201.148.064 6.434.436 12.86 1.115 19.258a241.555 241.555 0 0 0-170.164 104.791 184.986 184.986 0 0 0-94.472-26.191c-64.378.095-124.076 33.653-157.62 88.601a314.286 314.286 0 0 0-132.49-31.79c-117.455-214.318-99.633-408.01-99.633-642.48H2341.47c0 238.69 18.47 435.119-106.108 654.069a152.661 152.661 0 0 0-121-59.746c-6.529.063-13.048.544-19.515 1.441-13.4-67.816-70.698-118.164-139.674-122.734a241.553 241.553 0 0 0 5.297-49.87c-.113-131.255-105.018-238.402-236.242-241.288a314.29 314.29 0 0 0 1.886-33.471c.001-173.575-140.71-314.287-314.285-314.287a314.286 314.286 0 0 0-224.52 94.793c-47.116-120.515-163.28-199.835-292.68-199.848z" transform="scale(.26458)"/><path style="opacity:1;fill:#ffca05;fill-opacity:1;fill-rule:nonzero;stroke:none;stroke-width:113.38582611;stroke-linecap:round;stroke-linejoin:round;stroke-miterlimit:4;stroke-dasharray:none;stroke-dashoffset:8.12598419;stroke-opacity:1;paint-order:markers stroke fill" d="M1244.35 3286.01a314.286 314.286 0 0 0-231.323 102.095 152.66 152.66 0 0 0-100.007-37.445c-26.55.041-53.51 7.592-76.545 20.793 323.344 618.144 963.351 1005.057 1660.236 1005.473 484.52-.159 950.4-187.734 1299.494-524.172-38.676-74.77-116.04-122.196-200.22-122.277-102.393.13-191.832 69.261-217.76 168.316a152.662 152.662 0 0 0-65.084-14.774c-57.838.077-110.666 32.83-136.451 84.602a152.663 152.663 0 0 0-33.254-3.789 152.662 152.662 0 0 0-111.303 48.453 225.392 225.392 0 0 0-139.215-48.453 225.393 225.393 0 0 0-148.441 56.16c-59.533-76.208-150.834-120.767-247.54-120.808a314.286 314.286 0 0 0-180.73 57.63c-22.622-59.037-79.294-98.021-142.518-98.037a152.66 152.66 0 0 0-104.939 41.903c-41.926-61.527-111.53-98.38-185.984-98.471a225.385 225.385 0 0 0-54.752 6.969 225.397 225.397 0 0 0 5.383-48.258c0-124.481-100.912-225.393-225.393-225.393a225.397 225.397 0 0 0-54.703 6.96c-27.404-149.109-157.346-257.401-308.951-257.477z" transform="scale(.26458)"/><g transform="matrix(1.68398 0 0 1.68398 2034.322 1242.699)"><path d="M-815.031-515.611a17.43 17.43 0 0 0-14.998 8.193l-117.887 188.754a17.43 17.43 0 0 0-2.646 9.232v128.924a17.43 17.43 0 0 0 32.507 8.738l102.809-177.414L-712.44-171.77a17.43 17.43 0 0 0 32.505-8.738v-128.924a17.43 17.43 0 0 0-2.646-9.232l-117.885-188.754a17.43 17.43 0 0 0-14.566-8.193z" style="color:#000;font-style:normal;font-variant:normal;font-weight:400;font-stretch:normal;font-size:medium;line-height:normal;font-family:sans-serif;font-variant-ligatures:normal;font-variant-position:normal;font-variant-caps:normal;font-variant-numeric:normal;font-variant-alternates:normal;font-feature-settings:normal;text-indent:0;text-align:start;text-decoration:none;text-decoration-line:none;text-decoration-style:solid;text-decoration-color:#000;letter-spacing:normal;word-spacing:normal;text-transform:none;writing-mode:lr-tb;direction:ltr;text-orientation:mixed;dominant-baseline:auto;baseline-shift:baseline;text-anchor:start;white-space:normal;shape-padding:0;clip-rule:nonzero;display:inline;overflow:visible;visibility:visible;opacity:1;isolation:auto;mix-blend-mode:normal;color-interpolation:sRGB;color-interpolation-filters:linearRGB;solid-color:#000;solid-opacity:1;vector-effect:none;fill:#fa2e24;fill-opacity:1;fill-rule:nonzero;stroke:none;stroke-width:34.85576248;stroke-linecap:round;stroke-linejoin:round;stroke-miterlimit:4;stroke-dasharray:none;stroke-dashoffset:0;stroke-opacity:1;paint-order:normal;color-rendering:auto;image-rendering:auto;shape-rendering:auto;text-rendering:auto;enable-background:accumulate"/><path transform="matrix(.26458 0 0 .26458 0 -1025.917)" d="M-3081.25 1296.875s-381.25 237.5-381.25 840.625c0 198.842 71.072 469.385 174.732 856.25 95.397 55.077 317.639 55.077 413.036 0C-2746.808 2606.885-2700 2336.342-2700 2137.5c0-603.125-381.25-840.625-381.25-840.625z" style="opacity:1;fill:#fff;fill-opacity:1;fill-rule:nonzero;stroke:none;stroke-width:151.18110657;stroke-linecap:round;stroke-linejoin:round;stroke-miterlimit:4;stroke-dasharray:none;stroke-dashoffset:0;stroke-opacity:1;paint-order:normal"/><circle r="42.995" cy="-509.152" cx="-815.247" style="opacity:1;fill:#127486;fill-opacity:1;fill-rule:nonzero;stroke:none;stroke-width:41.60000229;stroke-linecap:round;stroke-linejoin:round;stroke-miterlimit:4;stroke-dasharray:none;stroke-dashoffset:0;stroke-opacity:1;paint-order:normal"/><path transform="matrix(.26458 0 0 .26458 0 -1025.917)" d="M-2853.05 2926.84c-106.398 51.921-342.266 52.602-452.071 2.047a82908.89 82908.89 0 0 0 17.353 64.863c95.397 55.077 317.639 55.077 413.036 0a5872.942 5872.942 0 0 0 21.681-66.91z" style="opacity:1;fill:#474747;fill-opacity:1;fill-rule:nonzero;stroke:none;stroke-width:151.18110657;stroke-linecap:round;stroke-linejoin:round;stroke-miterlimit:4;stroke-dasharray:none;stroke-dashoffset:0;stroke-opacity:1;paint-order:normal"/><path d="M-815.473-356.588a15.002 15.002 0 0 0-14.775 15.211v138.563a15.002 15.002 0 1 0 30 0v-138.563a15.002 15.002 0 0 0-15.225-15.21z" style="color:#000;font-style:normal;font-variant:normal;font-weight:400;font-stretch:normal;font-size:medium;line-height:normal;font-family:sans-serif;font-variant-ligatures:normal;font-variant-position:normal;font-variant-caps:normal;font-variant-numeric:normal;font-variant-alternates:normal;font-feature-settings:normal;text-indent:0;text-align:start;text-decoration:none;text-decoration-line:none;text-decoration-style:solid;text-decoration-color:#000;letter-spacing:normal;word-spacing:normal;text-transform:none;writing-mode:lr-tb;direction:ltr;text-orientation:mixed;dominant-baseline:auto;baseline-shift:baseline;text-anchor:start;white-space:normal;shape-padding:0;clip-rule:nonzero;display:inline;overflow:visible;visibility:visible;opacity:1;isolation:auto;mix-blend-mode:normal;color-interpolation:sRGB;color-interpolation-filters:linearRGB;solid-color:#000;solid-opacity:1;vector-effect:none;fill:#fa2e24;fill-opacity:1;fill-rule:nonzero;stroke:none;stroke-width:30;stroke-linecap:round;stroke-linejoin:round;stroke-miterlimit:4;stroke-dasharray:none;stroke-dashoffset:0;stroke-opacity:1;paint-order:normal;color-rendering:auto;image-rendering:auto;shape-rendering:auto;text-rendering:auto;enable-background:accumulate"/><circle style="opacity:1;fill:#1db7d3;fill-opacity:1;fill-rule:nonzero;stroke:none;stroke-width:35.66030502;stroke-linecap:round;stroke-linejoin:round;stroke-miterlimit:4;stroke-dasharray:none;stroke-dashoffset:0;stroke-opacity:1;paint-order:normal" cx="-810.998" cy="-504.44" r="36.856"/><path d="M-815.248-559.646c-27.799 0-50.494 22.695-50.494 50.494 0 27.798 22.695 50.494 50.494 50.494s50.496-22.696 50.496-50.494c0-27.799-22.697-50.494-50.496-50.494zm0 15a35.382 35.382 0 0 1 35.496 35.494 35.382 35.382 0 0 1-35.496 35.494 35.38 35.38 0 0 1-35.494-35.494 35.38 35.38 0 0 1 35.494-35.494z" style="color:#000;font-style:normal;font-variant:normal;font-weight:400;font-stretch:normal;font-size:medium;line-height:normal;font-family:sans-serif;font-variant-ligatures:normal;font-variant-position:normal;font-variant-caps:normal;font-variant-numeric:normal;font-variant-alternates:normal;font-feature-settings:normal;text-indent:0;text-align:start;text-decoration:none;text-decoration-line:none;text-decoration-style:solid;text-decoration-color:#000;letter-spacing:normal;word-spacing:normal;text-transform:none;writing-mode:lr-tb;direction:ltr;text-orientation:mixed;dominant-baseline:auto;baseline-shift:baseline;text-anchor:start;white-space:normal;shape-padding:0;clip-rule:nonzero;display:inline;overflow:visible;visibility:visible;opacity:1;isolation:auto;mix-blend-mode:normal;color-interpolation:sRGB;color-interpolation-filters:linearRGB;solid-color:#000;solid-opacity:1;vector-effect:none;fill:#22303b;fill-opacity:1;fill-rule:nonzero;stroke:none;stroke-width:15;stroke-linecap:round;stroke-linejoin:round;stroke-miterlimit:4;stroke-dasharray:none;stroke-dashoffset:0;stroke-opacity:1;paint-order:normal;color-rendering:auto;image-rendering:auto;shape-rendering:auto;text-rendering:auto;enable-background:accumulate"/><path transform="matrix(.26458 0 0 .26458 0 -1025.917)" d="M-3081.25 1296.875s-101.737 63.383-200.102 207.8a472.743 229.688 0 0 0 200.102 21.888 472.743 229.688 0 0 0 200.111-21.874c-98.367-144.426-200.111-207.814-200.111-207.814Z" style="opacity:1;fill:#fa2e24;fill-opacity:1;fill-rule:nonzero;stroke:none;stroke-width:113.86774445;stroke-linecap:round;stroke-linejoin:round;stroke-miterlimit:4;stroke-dasharray:none;stroke-dashoffset:0;stroke-opacity:1;paint-order:normal"/><path transform="matrix(.26458 0 0 .26458 0 -1025.917)" d="M-3081.25 1296.875V3168.369a56.699 56.699 0 0 0 56.691-57.432v-78.263c58.98-5.02 113.568-17.99 149.827-38.924C-2746.808 2606.885-2700 2336.342-2700 2137.5c0-603.125-381.25-840.625-381.25-840.625z" style="opacity:.15;fill:#000;fill-opacity:1;fill-rule:nonzero;stroke:none;stroke-width:56.69291306;stroke-linecap:round;stroke-linejoin:round;stroke-miterlimit:4;stroke-dasharray:none;stroke-dashoffset:0;stroke-opacity:1;paint-order:normal"/></g></svg>